<?xml version="1.0" encoding="utf-8"?>
<svg xmlns="http://www.w3.org/2000/svg" fill="none" version="1.1" viewBox="-178.074 -101.223 350.615 265.901" x="-178.074pt" y="-101.223pt" width="350.615pt" height="265.901pt" stroke-width="0.566929" stroke-miterlimit="10.000000">
 <path d="M32.8441 -13.6428L36.1138 -14.5806" stroke="black"/>
 <path d="M47.2331 -3.37288L49.2505 -3.96455" stroke="black"/>
 <path d="M59.5722 7.98732L62.8302 7.00965" stroke="black"/>
 <path d="M74.8663 18.9777L76.8759 18.3604" stroke="black"/>
 <path d="M88.1672 31.1283L91.412 30.1073" stroke="black"/>
 <path d="M104.464 42.9169L106.464 42.2717" stroke="black"/>
 <path d="M118.832 55.944L122.061 54.876" stroke="black"/>
 <path d="M136.242 68.6202L138.233 67.9447" stroke="black"/>
 <path d="M151.799 82.6231L155.011 81.5039" stroke="black"/>
 <g stroke-linecap="square">
  <path d="M36.1138 -14.5806L155.011 81.5039" stroke="black"/>
 </g>
 <path d="M-143.514 40.1358L-145.763 37.584" stroke="black"/>
 <path d="M-119.995 32.1457L-121.424 30.6031" stroke="black"/>
 <path d="M-95.2011 26.2027L-97.57 23.7616" stroke="black"/>
 <path d="M-72.6906 18.5309L-74.1881 17.0554" stroke="black"/>
 <path d="M-48.7903 12.8153L-51.264 10.4805" stroke="black"/>
 <path d="M-27.2262 5.44437L-28.7843 4.03298" stroke="black"/>
 <path d="M-4.17086 -0.0569184L-6.73619 -2.2907" stroke="black"/>
 <path d="M16.5036 -7.14356L14.8925 -8.4941" stroke="black"/>
 <path d="M38.7595 -12.4426L36.1138 -14.5806" stroke="black"/>
 <g stroke-linecap="square">
  <path d="M-145.763 37.584L36.1138 -14.5806" stroke="black"/>
 </g>
 <path d="M-142.493 36.6462L-145.763 37.584" stroke="black"/>
 <path d="M-132.786 49.4262L-134.804 50.0179" stroke="black"/>
 <path d="M-120.185 61.9289L-123.443 62.9066" stroke="black"/>
 <path d="M-109.65 75.6582L-111.659 76.2755" stroke="black"/>
 <path d="M-96.1831 89.1312L-99.4279 90.1522" stroke="black"/>
 <path d="M-84.7223 103.921L-86.7232 104.566" stroke="black"/>
 <path d="M-70.2874 118.481L-73.517 119.548" stroke="black"/>
 <path d="M-57.7883 134.459L-59.7791 135.134" stroke="black"/>
 <path d="M-42.2646 150.241L-45.4767 151.361" stroke="black"/>
 <g transform="matrix(1.000000,0.000000,0.000000,1.000000,-157.280237,40.887297)">
  <path d="M-2.10212 2.49066M2.09215 -0.697385C2.09215 -1.4944 2.04234 -2.29141 1.69365 -3.02864C1.23537 -3.98506 0.418431 -4.14446 4.44089e-16 -4.14446C-0.597758 -4.14446 -1.32503 -3.88543 -1.7335 -2.9589C-2.0523 -2.27148 -2.10212 -1.4944 -2.10212 -0.697385C-2.10212 0.0498132 -2.06227 0.946451 -1.6538 1.70361C-1.2254 2.51059 -0.498132 2.70984 -0.00996264 2.70984C0.52802 2.70984 1.28518 2.50062 1.72354 1.55417C2.04234 0.86675 2.09215 0.0896638 2.09215 -0.697385ZM2.09215 -0.697385M-0.00996264 2.49066C-0.398506 2.49066 -0.986301 2.24159 -1.16563 1.28518C-1.27522 0.687422 -1.27522 -0.229141 -1.27522 -0.816936C-1.27522 -1.45455 -1.27522 -2.11208 -1.19552 -2.65006C-1.00623 -3.83562 -0.259029 -3.92528 -0.00996264 -3.92528C0.318804 -3.92528 0.976339 -3.74595 1.16563 -2.75965C1.26526 -2.20174 1.26526 -1.44458 1.26526 -0.816936C1.26526 -0.0697385 1.26526 0.607721 1.15567 1.24533C1.00623 2.19178 0.438356 2.49066 -0.00996264 2.49066ZM-0.00996264 2.49066" fill="black"/>
 </g>
 <g transform="matrix(1.000000,0.000000,0.000000,1.000000,-138.509155,67.427634)">
  <path d="M-5.8669 2.49066M-5.09978 1.72354L-4.04374 0.697385C-2.48956 -0.67746 -1.89181 -1.21544 -1.89181 -2.21171C-1.89181 -3.34745 -2.78844 -4.14446 -4.00389 -4.14446C-5.12966 -4.14446 -5.8669 -3.2279 -5.8669 -2.34122C-5.8669 -1.78331 -5.36877 -1.78331 -5.33888 -1.78331C-5.16952 -1.78331 -4.82082 -1.90286 -4.82082 -2.31133C-4.82082 -2.57036 -5.00015 -2.82939 -5.34884 -2.82939C-5.42854 -2.82939 -5.44847 -2.82939 -5.47836 -2.81943C-5.24922 -3.467 -4.71123 -3.83562 -4.1334 -3.83562C-3.2268 -3.83562 -2.79841 -3.02864 -2.79841 -2.21171C-2.79841 -1.41469 -3.29654 -0.627646 -3.84448 -0.00996264L-5.75731 2.12204C-5.8669 2.23163 -5.8669 2.25156 -5.8669 2.49066L-2.17076 2.49066L-1.89181 0.757161L-2.14087 0.757161C-2.19069 1.05604 -2.26042 1.4944 -2.36005 1.64384C-2.42979 1.72354 -3.08732 1.72354 -3.3065 1.72354ZM-3.3065 1.72354" fill="black"/>
  <path d="M-0.52691 2.49066M0.52913 1.96264C0.52913 1.67372 0.290027 1.43462 0.00111034 1.43462C-0.287806 1.43462 -0.52691 1.67372 -0.52691 1.96264C-0.52691 2.25156 -0.287806 2.49066 0.00111034 2.49066C0.290027 2.49066 0.52913 2.25156 0.52913 1.96264ZM0.52913 1.96264" fill="black"/>
  <path d="M1.88184 2.49066M5.85694 0.488169C5.85694 -0.697385 5.04 -1.69365 3.96404 -1.69365C3.48583 -1.69365 3.05744 -1.53425 2.69878 -1.18555L2.69878 -3.12827C2.89803 -3.06849 3.2268 -2.99875 3.5456 -2.99875C4.77101 -2.99875 5.46839 -3.90535 5.46839 -4.03487C5.46839 -4.09465 5.43851 -4.14446 5.36877 -4.14446C5.35881 -4.14446 5.33888 -4.14446 5.28907 -4.11457C5.08981 -4.02491 4.60164 -3.82565 3.93415 -3.82565C3.53564 -3.82565 3.07736 -3.89539 2.60912 -4.10461C2.52942 -4.1345 2.50949 -4.1345 2.48956 -4.1345C2.38994 -4.1345 2.38994 -4.05479 2.38994 -3.89539L2.38994 -0.946451C2.38994 -0.767123 2.38994 -0.687422 2.52942 -0.687422C2.59915 -0.687422 2.61908 -0.71731 2.65893 -0.777086C2.76852 -0.936488 3.13714 -1.47447 3.94411 -1.47447C4.46217 -1.47447 4.71123 -1.01619 4.79093 -0.836862C4.95034 -0.468244 4.97026 -0.0797011 4.97026 0.418431C4.97026 0.767123 4.97026 1.36488 4.73116 1.78331C4.49206 2.17186 4.12344 2.43088 3.66516 2.43088C2.93788 2.43088 2.37001 1.90286 2.20065 1.31507C2.23054 1.32503 2.26042 1.33499 2.37001 1.33499C2.69878 1.33499 2.86815 1.08593 2.86815 0.846824C2.86815 0.607721 2.69878 0.358655 2.37001 0.358655C2.23054 0.358655 1.88184 0.428394 1.88184 0.886675C1.88184 1.74346 2.56927 2.70984 3.68508 2.70984C4.84075 2.70984 5.85694 1.75342 5.85694 0.488169ZM5.85694 0.488169" fill="black"/>
 </g>
 <g transform="matrix(1.000000,0.000000,0.000000,1.000000,-110.931134,93.771481)">
  <path d="M-1.99253 2.49066M1.98257 0.488169C1.98257 -0.697385 1.16563 -1.69365 0.0896638 -1.69365C-0.388543 -1.69365 -0.816936 -1.53425 -1.17559 -1.18555L-1.17559 -3.12827C-0.976339 -3.06849 -0.647572 -2.99875 -0.328767 -2.99875C0.896638 -2.99875 1.59402 -3.90535 1.59402 -4.03487C1.59402 -4.09465 1.56413 -4.14446 1.4944 -4.14446C1.48443 -4.14446 1.46451 -4.14446 1.41469 -4.11457C1.21544 -4.02491 0.727273 -3.82565 0.0597758 -3.82565C-0.33873 -3.82565 -0.797011 -3.89539 -1.26526 -4.10461C-1.34496 -4.1345 -1.36488 -4.1345 -1.38481 -4.1345C-1.48443 -4.1345 -1.48443 -4.05479 -1.48443 -3.89539L-1.48443 -0.946451C-1.48443 -0.767123 -1.48443 -0.687422 -1.34496 -0.687422C-1.27522 -0.687422 -1.25529 -0.71731 -1.21544 -0.777086C-1.10585 -0.936488 -0.737235 -1.47447 0.0697385 -1.47447C0.587796 -1.47447 0.836862 -1.01619 0.916563 -0.836862C1.07597 -0.468244 1.09589 -0.0797011 1.09589 0.418431C1.09589 0.767123 1.09589 1.36488 0.856787 1.78331C0.617684 2.17186 0.249066 2.43088 -0.209215 2.43088C-0.936488 2.43088 -1.50436 1.90286 -1.67372 1.31507C-1.64384 1.32503 -1.61395 1.33499 -1.50436 1.33499C-1.17559 1.33499 -1.00623 1.08593 -1.00623 0.846824C-1.00623 0.607721 -1.17559 0.358655 -1.50436 0.358655C-1.64384 0.358655 -1.99253 0.428394 -1.99253 0.886675C-1.99253 1.74346 -1.30511 2.70984 -0.18929 2.70984C0.966376 2.70984 1.98257 1.75342 1.98257 0.488169ZM1.98257 0.488169" fill="black"/>
 </g>
 <g transform="matrix(1.000000,0.000000,0.000000,1.000000,-88.500014,124.502945)">
  <path d="M-5.80712 2.49066M-1.62282 -3.57659C-1.53315 -3.69614 -1.53315 -3.71606 -1.53315 -3.92528L-3.95407 -3.92528C-5.16952 -3.92528 -5.18944 -4.05479 -5.22929 -4.24408L-5.47836 -4.24408L-5.80712 -2.19178L-5.55806 -2.19178C-5.52817 -2.35118 -5.43851 -2.97883 -5.30899 -3.09838C-5.23925 -3.15816 -4.46217 -3.15816 -4.33265 -3.15816L-2.27039 -3.15816C-2.37998 -2.99875 -3.16702 -1.91283 -3.3862 -1.58406C-4.28284 -0.239103 -4.61161 1.1457 -4.61161 2.16189C-4.61161 2.26152 -4.61161 2.70984 -4.15333 2.70984C-3.69504 2.70984 -3.69504 2.26152 -3.69504 2.16189L-3.69504 1.6538C-3.69504 1.10585 -3.66516 0.557908 -3.58546 0.0199253C-3.5456 -0.209215 -3.40613 -1.066 -2.96777 -1.68369ZM-2.96777 -1.68369" fill="black"/>
  <path d="M-0.52691 2.49066M0.52913 1.96264C0.52913 1.67372 0.290027 1.43462 0.00111034 1.43462C-0.287806 1.43462 -0.52691 1.67372 -0.52691 1.96264C-0.52691 2.25156 -0.287806 2.49066 0.00111034 2.49066C0.290027 2.49066 0.52913 2.25156 0.52913 1.96264ZM0.52913 1.96264" fill="black"/>
  <path d="M1.88184 2.49066M5.85694 0.488169C5.85694 -0.697385 5.04 -1.69365 3.96404 -1.69365C3.48583 -1.69365 3.05744 -1.53425 2.69878 -1.18555L2.69878 -3.12827C2.89803 -3.06849 3.2268 -2.99875 3.5456 -2.99875C4.77101 -2.99875 5.46839 -3.90535 5.46839 -4.03487C5.46839 -4.09465 5.43851 -4.14446 5.36877 -4.14446C5.35881 -4.14446 5.33888 -4.14446 5.28907 -4.11457C5.08981 -4.02491 4.60164 -3.82565 3.93415 -3.82565C3.53564 -3.82565 3.07736 -3.89539 2.60912 -4.10461C2.52942 -4.1345 2.50949 -4.1345 2.48956 -4.1345C2.38994 -4.1345 2.38994 -4.05479 2.38994 -3.89539L2.38994 -0.946451C2.38994 -0.767123 2.38994 -0.687422 2.52942 -0.687422C2.59915 -0.687422 2.61908 -0.71731 2.65893 -0.777086C2.76852 -0.936488 3.13714 -1.47447 3.94411 -1.47447C4.46217 -1.47447 4.71123 -1.01619 4.79093 -0.836862C4.95034 -0.468244 4.97026 -0.0797011 4.97026 0.418431C4.97026 0.767123 4.97026 1.36488 4.73116 1.78331C4.49206 2.17186 4.12344 2.43088 3.66516 2.43088C2.93788 2.43088 2.37001 1.90286 2.20065 1.31507C2.23054 1.32503 2.26042 1.33499 2.37001 1.33499C2.69878 1.33499 2.86815 1.08593 2.86815 0.846824C2.86815 0.607721 2.69878 0.358655 2.37001 0.358655C2.23054 0.358655 1.88184 0.428394 1.88184 0.886675C1.88184 1.74346 2.56927 2.70984 3.68508 2.70984C4.84075 2.70984 5.85694 1.75342 5.85694 0.488169ZM5.85694 0.488169" fill="black"/>
 </g>
 <g transform="matrix(1.000000,0.000000,0.000000,1.000000,-59.170220,156.131936)">
  <path d="M-4.09466 2.49066M-2.05232 -3.88543C-2.05232 -4.12453 -2.05232 -4.14446 -2.28146 -4.14446C-2.89914 -3.50685 -3.77586 -3.50685 -4.09466 -3.50685L-4.09466 -3.19801C-3.89541 -3.19801 -3.30761 -3.19801 -2.78955 -3.45704L-2.78955 1.70361C-2.78955 2.06227 -2.81944 2.18182 -3.71608 2.18182L-4.03488 2.18182L-4.03488 2.49066C-3.68619 2.46077 -2.81944 2.46077 -2.42094 2.46077C-2.02243 2.46077 -1.15568 2.46077 -0.806989 2.49066L-0.806989 2.18182L-1.12579 2.18182C-2.02243 2.18182 -2.05232 2.07223 -2.05232 1.70361ZM-2.05232 1.70361M0.388528 2.49066M4.5828 -0.697385C4.5828 -1.4944 4.53299 -2.29141 4.18429 -3.02864C3.72601 -3.98506 2.90908 -4.14446 2.49064 -4.14446C1.89289 -4.14446 1.16561 -3.88543 0.757145 -2.9589C0.438341 -2.27148 0.388528 -1.4944 0.388528 -0.697385C0.388528 0.0498132 0.428378 0.946451 0.836847 1.70361C1.26524 2.51059 1.99251 2.70984 2.48068 2.70984C3.01866 2.70984 3.77583 2.50062 4.21418 1.55417C4.53299 0.86675 4.5828 0.0896638 4.5828 -0.697385ZM4.5828 -0.697385M2.48068 2.49066C2.09214 2.49066 1.50434 2.24159 1.32502 1.28518C1.21543 0.687422 1.21543 -0.229141 1.21543 -0.816936C1.21543 -1.45455 1.21543 -2.11208 1.29513 -2.65006C1.48442 -3.83562 2.23162 -3.92528 2.48068 -3.92528C2.80945 -3.92528 3.46698 -3.74595 3.65627 -2.75965C3.7559 -2.20174 3.7559 -1.44458 3.7559 -0.816936C3.7559 -0.0697385 3.7559 0.607721 3.64631 1.24533C3.49687 2.19178 2.929 2.49066 2.48068 2.49066ZM2.48068 2.49066" fill="black"/>
 </g>
 <g stroke-linecap="square">
  <path d="M-145.763 37.584L-45.4767 151.361" stroke="black"/>
 </g>
 <path d="M-47.726 148.809L-45.4767 151.361" stroke="black"/>
 <path d="M-19.7875 140.369L-18.3592 141.912" stroke="black"/>
 <path d="M5.76103 130.241L8.12995 132.682" stroke="black"/>
 <path d="M32.5147 122.189L34.0122 123.664" stroke="black"/>
 <path d="M56.8347 112.515L59.3083 114.85" stroke="black"/>
 <path d="M82.4798 104.822L84.0379 106.233" stroke="black"/>
 <path d="M105.654 95.5739L108.22 97.8077" stroke="black"/>
 <path d="M130.261 88.2159L131.872 89.5665" stroke="black"/>
 <path d="M152.366 79.3658L155.011 81.5039" stroke="black"/>
 <g transform="matrix(1.000000,0.000000,0.000000,1.000000,-36.815361,161.187158)">
  <path d="M-2.10212 2.49066M2.09215 -0.697385C2.09215 -1.4944 2.04234 -2.29141 1.69365 -3.02864C1.23537 -3.98506 0.418431 -4.14446 4.44089e-16 -4.14446C-0.597758 -4.14446 -1.32503 -3.88543 -1.7335 -2.9589C-2.0523 -2.27148 -2.10212 -1.4944 -2.10212 -0.697385C-2.10212 0.0498132 -2.06227 0.946451 -1.6538 1.70361C-1.2254 2.51059 -0.498132 2.70984 -0.00996264 2.70984C0.52802 2.70984 1.28518 2.50062 1.72354 1.55417C2.04234 0.86675 2.09215 0.0896638 2.09215 -0.697385ZM2.09215 -0.697385M-0.00996264 2.49066C-0.398506 2.49066 -0.986301 2.24159 -1.16563 1.28518C-1.27522 0.687422 -1.27522 -0.229141 -1.27522 -0.816936C-1.27522 -1.45455 -1.27522 -2.11208 -1.19552 -2.65006C-1.00623 -3.83562 -0.259029 -3.92528 -0.00996264 -3.92528C0.318804 -3.92528 0.976339 -3.74595 1.16563 -2.75965C1.26526 -2.20174 1.26526 -1.44458 1.26526 -0.816936C1.26526 -0.0697385 1.26526 0.607721 1.15567 1.24533C1.00623 2.19178 0.438356 2.49066 -0.00996264 2.49066ZM-0.00996264 2.49066" fill="black"/>
 </g>
 <g transform="matrix(1.000000,0.000000,0.000000,1.000000,17.224163,142.053623)">
  <path d="M-1.99253 2.49066M1.98257 0.488169C1.98257 -0.697385 1.16563 -1.69365 0.0896638 -1.69365C-0.388543 -1.69365 -0.816936 -1.53425 -1.17559 -1.18555L-1.17559 -3.12827C-0.976339 -3.06849 -0.647572 -2.99875 -0.328767 -2.99875C0.896638 -2.99875 1.59402 -3.90535 1.59402 -4.03487C1.59402 -4.09465 1.56413 -4.14446 1.4944 -4.14446C1.48443 -4.14446 1.46451 -4.14446 1.41469 -4.11457C1.21544 -4.02491 0.727273 -3.82565 0.0597758 -3.82565C-0.33873 -3.82565 -0.797011 -3.89539 -1.26526 -4.10461C-1.34496 -4.1345 -1.36488 -4.1345 -1.38481 -4.1345C-1.48443 -4.1345 -1.48443 -4.05479 -1.48443 -3.89539L-1.48443 -0.946451C-1.48443 -0.767123 -1.48443 -0.687422 -1.34496 -0.687422C-1.27522 -0.687422 -1.25529 -0.71731 -1.21544 -0.777086C-1.10585 -0.936488 -0.737235 -1.47447 0.0697385 -1.47447C0.587796 -1.47447 0.836862 -1.01619 0.916563 -0.836862C1.07597 -0.468244 1.09589 -0.0797011 1.09589 0.418431C1.09589 0.767123 1.09589 1.36488 0.856787 1.78331C0.617684 2.17186 0.249066 2.43088 -0.209215 2.43088C-0.936488 2.43088 -1.50436 1.90286 -1.67372 1.31507C-1.64384 1.32503 -1.61395 1.33499 -1.50436 1.33499C-1.17559 1.33499 -1.00623 1.08593 -1.00623 0.846824C-1.00623 0.607721 -1.17559 0.358655 -1.50436 0.358655C-1.64384 0.358655 -1.99253 0.428394 -1.99253 0.886675C-1.99253 1.74346 -1.30511 2.70984 -0.18929 2.70984C0.966376 2.70984 1.98257 1.75342 1.98257 0.488169ZM1.98257 0.488169" fill="black"/>
 </g>
 <g transform="matrix(1.000000,0.000000,0.000000,1.000000,70.088333,125.025352)">
  <path d="M-4.09466 2.49066M-2.05232 -3.88543C-2.05232 -4.12453 -2.05232 -4.14446 -2.28146 -4.14446C-2.89914 -3.50685 -3.77586 -3.50685 -4.09466 -3.50685L-4.09466 -3.19801C-3.89541 -3.19801 -3.30761 -3.19801 -2.78955 -3.45704L-2.78955 1.70361C-2.78955 2.06227 -2.81944 2.18182 -3.71608 2.18182L-4.03488 2.18182L-4.03488 2.49066C-3.68619 2.46077 -2.81944 2.46077 -2.42094 2.46077C-2.02243 2.46077 -1.15568 2.46077 -0.806989 2.49066L-0.806989 2.18182L-1.12579 2.18182C-2.02243 2.18182 -2.05232 2.07223 -2.05232 1.70361ZM-2.05232 1.70361M0.388528 2.49066M4.5828 -0.697385C4.5828 -1.4944 4.53299 -2.29141 4.18429 -3.02864C3.72601 -3.98506 2.90908 -4.14446 2.49064 -4.14446C1.89289 -4.14446 1.16561 -3.88543 0.757145 -2.9589C0.438341 -2.27148 0.388528 -1.4944 0.388528 -0.697385C0.388528 0.0498132 0.428378 0.946451 0.836847 1.70361C1.26524 2.51059 1.99251 2.70984 2.48068 2.70984C3.01866 2.70984 3.77583 2.50062 4.21418 1.55417C4.53299 0.86675 4.5828 0.0896638 4.5828 -0.697385ZM4.5828 -0.697385M2.48068 2.49066C2.09214 2.49066 1.50434 2.24159 1.32502 1.28518C1.21543 0.687422 1.21543 -0.229141 1.21543 -0.816936C1.21543 -1.45455 1.21543 -2.11208 1.29513 -2.65006C1.48442 -3.83562 2.23162 -3.92528 2.48068 -3.92528C2.80945 -3.92528 3.46698 -3.74595 3.65627 -2.75965C3.7559 -2.20174 3.7559 -1.44458 3.7559 -0.816936C3.7559 -0.0697385 3.7559 0.607721 3.64631 1.24533C3.49687 2.19178 2.929 2.49066 2.48068 2.49066ZM2.48068 2.49066" fill="black"/>
 </g>
 <g transform="matrix(1.000000,0.000000,0.000000,1.000000,119.412402,107.553781)">
  <path d="M-4.09466 2.49066M-2.05232 -3.88543C-2.05232 -4.12453 -2.05232 -4.14446 -2.28146 -4.14446C-2.89914 -3.50685 -3.77586 -3.50685 -4.09466 -3.50685L-4.09466 -3.19801C-3.89541 -3.19801 -3.30761 -3.19801 -2.78955 -3.45704L-2.78955 1.70361C-2.78955 2.06227 -2.81944 2.18182 -3.71608 2.18182L-4.03488 2.18182L-4.03488 2.49066C-3.68619 2.46077 -2.81944 2.46077 -2.42094 2.46077C-2.02243 2.46077 -1.15568 2.46077 -0.806989 2.49066L-0.806989 2.18182L-1.12579 2.18182C-2.02243 2.18182 -2.05232 2.07223 -2.05232 1.70361ZM-2.05232 1.70361M0.498117 2.49066M4.47321 0.488169C4.47321 -0.697385 3.65627 -1.69365 2.58031 -1.69365C2.1021 -1.69365 1.67371 -1.53425 1.31505 -1.18555L1.31505 -3.12827C1.51431 -3.06849 1.84307 -2.99875 2.16188 -2.99875C3.38728 -2.99875 4.08467 -3.90535 4.08467 -4.03487C4.08467 -4.09465 4.05478 -4.14446 3.98504 -4.14446C3.97508 -4.14446 3.95515 -4.14446 3.90534 -4.11457C3.70609 -4.02491 3.21792 -3.82565 2.55042 -3.82565C2.15192 -3.82565 1.69363 -3.89539 1.22539 -4.10461C1.14569 -4.1345 1.12576 -4.1345 1.10584 -4.1345C1.00621 -4.1345 1.00621 -4.05479 1.00621 -3.89539L1.00621 -0.946451C1.00621 -0.767123 1.00621 -0.687422 1.14569 -0.687422C1.21543 -0.687422 1.23535 -0.71731 1.2752 -0.777086C1.38479 -0.936488 1.75341 -1.47447 2.56038 -1.47447C3.07844 -1.47447 3.32751 -1.01619 3.40721 -0.836862C3.56661 -0.468244 3.58654 -0.0797011 3.58654 0.418431C3.58654 0.767123 3.58654 1.36488 3.34743 1.78331C3.10833 2.17186 2.73971 2.43088 2.28143 2.43088C1.55416 2.43088 0.986286 1.90286 0.816921 1.31507C0.846809 1.32503 0.876697 1.33499 0.986286 1.33499C1.31505 1.33499 1.48442 1.08593 1.48442 0.846824C1.48442 0.607721 1.31505 0.358655 0.986286 0.358655C0.846809 0.358655 0.498117 0.428394 0.498117 0.886675C0.498117 1.74346 1.18554 2.70984 2.30135 2.70984C3.45702 2.70984 4.47321 1.75342 4.47321 0.488169ZM4.47321 0.488169" fill="black"/>
 </g>
 <g transform="matrix(1.000000,0.000000,0.000000,1.000000,166.560103,90.836631)">
  <path d="M-4.4832 2.49066M-3.71608 1.72354L-2.66004 0.697385C-1.10587 -0.67746 -0.50811 -1.21544 -0.50811 -2.21171C-0.50811 -3.34745 -1.40475 -4.14446 -2.62019 -4.14446C-3.74597 -4.14446 -4.4832 -3.2279 -4.4832 -2.34122C-4.4832 -1.78331 -3.98507 -1.78331 -3.95518 -1.78331C-3.78582 -1.78331 -3.43713 -1.90286 -3.43713 -2.31133C-3.43713 -2.57036 -3.61645 -2.82939 -3.96515 -2.82939C-4.04485 -2.82939 -4.06477 -2.82939 -4.09466 -2.81943C-3.86552 -3.467 -3.32754 -3.83562 -2.7497 -3.83562C-1.8431 -3.83562 -1.41471 -3.02864 -1.41471 -2.21171C-1.41471 -1.41469 -1.91284 -0.627646 -2.46079 -0.00996264L-4.37361 2.12204C-4.4832 2.23163 -4.4832 2.25156 -4.4832 2.49066L-0.787064 2.49066L-0.50811 0.757161L-0.757176 0.757161C-0.806989 1.05604 -0.876728 1.4944 -0.976354 1.64384C-1.04609 1.72354 -1.70363 1.72354 -1.9228 1.72354ZM-1.9228 1.72354M0.388528 2.49066M4.5828 -0.697385C4.5828 -1.4944 4.53299 -2.29141 4.18429 -3.02864C3.72601 -3.98506 2.90908 -4.14446 2.49064 -4.14446C1.89289 -4.14446 1.16561 -3.88543 0.757145 -2.9589C0.438341 -2.27148 0.388528 -1.4944 0.388528 -0.697385C0.388528 0.0498132 0.428378 0.946451 0.836847 1.70361C1.26524 2.51059 1.99251 2.70984 2.48068 2.70984C3.01866 2.70984 3.77583 2.50062 4.21418 1.55417C4.53299 0.86675 4.5828 0.0896638 4.5828 -0.697385ZM4.5828 -0.697385M2.48068 2.49066C2.09214 2.49066 1.50434 2.24159 1.32502 1.28518C1.21543 0.687422 1.21543 -0.229141 1.21543 -0.816936C1.21543 -1.45455 1.21543 -2.11208 1.29513 -2.65006C1.48442 -3.83562 2.23162 -3.92528 2.48068 -3.92528C2.80945 -3.92528 3.46698 -3.74595 3.65627 -2.75965C3.7559 -2.20174 3.7559 -1.44458 3.7559 -0.816936C3.7559 -0.0697385 3.7559 0.607721 3.64631 1.24533C3.49687 2.19178 2.929 2.49066 2.48068 2.49066ZM2.48068 2.49066" fill="black"/>
 </g>
 <g stroke-linecap="square">
  <path d="M-45.4767 151.361L155.011 81.5039" stroke="black"/>
 </g>
 <path d="M-142.397 38.0755L-145.763 37.584" stroke="black"/>
 <path d="M-144.749 23.7743L-146.831 23.4766" stroke="black"/>
 <path d="M-144.545 9.63286L-147.914 9.16094" stroke="black"/>
 <path d="M-146.93 -5.08201L-149.013 -5.36748" stroke="black"/>
 <path d="M-146.758 -19.6618L-150.129 -20.1135" stroke="black"/>
 <path d="M-149.177 -34.8092L-151.262 -35.082" stroke="black"/>
 <path d="M-149.037 -49.8473L-152.412 -50.2781" stroke="black"/>
 <path d="M-151.493 -65.4473L-153.579 -65.707" stroke="black"/>
 <path d="M-151.388 -80.9649L-154.765 -81.374" stroke="black"/>
 <g transform="matrix(1.000000,0.000000,0.000000,1.000000,-160.884751,35.375927)">
  <path d="M-5.53813 2.49066M0.200348 0.199253C0.369713 0.199253 0.54904 0.199253 0.54904 -4.44089e-16C0.54904 -0.199253 0.369713 -0.199253 0.200348 -0.199253L-5.18944 -0.199253C-5.35881 -0.199253 -5.53813 -0.199253 -5.53813 -4.44089e-16C-5.53813 0.199253 -5.35881 0.199253 -5.18944 0.199253ZM-5.18944 0.199253" fill="black"/>
  <path d="M2.27039 2.49066M4.31273 -3.88543C4.31273 -4.12453 4.31273 -4.14446 4.08359 -4.14446C3.4659 -3.50685 2.58919 -3.50685 2.27039 -3.50685L2.27039 -3.19801C2.46964 -3.19801 3.05744 -3.19801 3.57549 -3.45704L3.57549 1.70361C3.57549 2.06227 3.5456 2.18182 2.64897 2.18182L2.33016 2.18182L2.33016 2.49066C2.67886 2.46077 3.5456 2.46077 3.94411 2.46077C4.34262 2.46077 5.20937 2.46077 5.55806 2.49066L5.55806 2.18182L5.23925 2.18182C4.34262 2.18182 4.31273 2.07223 4.31273 1.70361ZM4.31273 1.70361" fill="black"/>
 </g>
 <g transform="matrix(1.000000,0.000000,0.000000,1.000000,-166.834150,6.510396)">
  <path d="M-9.4125 2.49066M-3.67402 0.199253C-3.50466 0.199253 -3.32533 0.199253 -3.32533 -4.44089e-16C-3.32533 -0.199253 -3.50466 -0.199253 -3.67402 -0.199253L-9.06381 -0.199253C-9.23318 -0.199253 -9.4125 -0.199253 -9.4125 -4.44089e-16C-9.4125 0.199253 -9.23318 0.199253 -9.06381 0.199253ZM-9.06381 0.199253" fill="black"/>
  <path d="M-2.10212 2.49066M2.09215 -0.697385C2.09215 -1.4944 2.04234 -2.29141 1.69365 -3.02864C1.23537 -3.98506 0.418431 -4.14446 4.44089e-16 -4.14446C-0.597758 -4.14446 -1.32503 -3.88543 -1.7335 -2.9589C-2.0523 -2.27148 -2.10212 -1.4944 -2.10212 -0.697385C-2.10212 0.0498132 -2.06227 0.946451 -1.6538 1.70361C-1.2254 2.51059 -0.498132 2.70984 -0.00996264 2.70984C0.52802 2.70984 1.28518 2.50062 1.72354 1.55417C2.04234 0.86675 2.09215 0.0896638 2.09215 -0.697385ZM2.09215 -0.697385M-0.00996264 2.49066C-0.398506 2.49066 -0.986301 2.24159 -1.16563 1.28518C-1.27522 0.687422 -1.27522 -0.229141 -1.27522 -0.816936C-1.27522 -1.45455 -1.27522 -2.11208 -1.19552 -2.65006C-1.00623 -3.83562 -0.259029 -3.92528 -0.00996264 -3.92528C0.318804 -3.92528 0.976339 -3.74595 1.16563 -2.75965C1.26526 -2.20174 1.26526 -1.44458 1.26526 -0.816936C1.26526 -0.0697385 1.26526 0.607721 1.15567 1.24533C1.00623 2.19178 0.438356 2.49066 -0.00996264 2.49066ZM-0.00996264 2.49066" fill="black"/>
  <path d="M3.34746 2.49066M4.4035 1.96264C4.4035 1.67372 4.1644 1.43462 3.87548 1.43462C3.58657 1.43462 3.34746 1.67372 3.34746 1.96264C3.34746 2.25156 3.58657 2.49066 3.87548 2.49066C4.1644 2.49066 4.4035 2.25156 4.4035 1.96264ZM4.4035 1.96264" fill="black"/>
  <path d="M5.75622 2.49066M9.73131 0.488169C9.73131 -0.697385 8.91437 -1.69365 7.83841 -1.69365C7.3602 -1.69365 6.93181 -1.53425 6.57315 -1.18555L6.57315 -3.12827C6.7724 -3.06849 7.10117 -2.99875 7.41998 -2.99875C8.64538 -2.99875 9.34277 -3.90535 9.34277 -4.03487C9.34277 -4.09465 9.31288 -4.14446 9.24314 -4.14446C9.23318 -4.14446 9.21325 -4.14446 9.16344 -4.11457C8.96419 -4.02491 8.47602 -3.82565 7.80852 -3.82565C7.41001 -3.82565 6.95173 -3.89539 6.48349 -4.10461C6.40379 -4.1345 6.38386 -4.1345 6.36394 -4.1345C6.26431 -4.1345 6.26431 -4.05479 6.26431 -3.89539L6.26431 -0.946451C6.26431 -0.767123 6.26431 -0.687422 6.40379 -0.687422C6.47353 -0.687422 6.49345 -0.71731 6.5333 -0.777086C6.64289 -0.936488 7.01151 -1.47447 7.81848 -1.47447C8.33654 -1.47447 8.58561 -1.01619 8.66531 -0.836862C8.82471 -0.468244 8.84463 -0.0797011 8.84463 0.418431C8.84463 0.767123 8.84463 1.36488 8.60553 1.78331C8.36643 2.17186 7.99781 2.43088 7.53953 2.43088C6.81226 2.43088 6.24439 1.90286 6.07502 1.31507C6.10491 1.32503 6.1348 1.33499 6.24439 1.33499C6.57315 1.33499 6.74252 1.08593 6.74252 0.846824C6.74252 0.607721 6.57315 0.358655 6.24439 0.358655C6.10491 0.358655 5.75622 0.428394 5.75622 0.886675C5.75622 1.74346 6.44364 2.70984 7.55945 2.70984C8.71512 2.70984 9.73131 1.75342 9.73131 0.488169ZM9.73131 0.488169" fill="black"/>
 </g>
 <g transform="matrix(1.000000,0.000000,0.000000,1.000000,-161.332214,-21.614418)">
  <path d="M-2.10212 2.49066M2.09215 -0.697385C2.09215 -1.4944 2.04234 -2.29141 1.69365 -3.02864C1.23537 -3.98506 0.418431 -4.14446 4.44089e-16 -4.14446C-0.597758 -4.14446 -1.32503 -3.88543 -1.7335 -2.9589C-2.0523 -2.27148 -2.10212 -1.4944 -2.10212 -0.697385C-2.10212 0.0498132 -2.06227 0.946451 -1.6538 1.70361C-1.2254 2.51059 -0.498132 2.70984 -0.00996264 2.70984C0.52802 2.70984 1.28518 2.50062 1.72354 1.55417C2.04234 0.86675 2.09215 0.0896638 2.09215 -0.697385ZM2.09215 -0.697385M-0.00996264 2.49066C-0.398506 2.49066 -0.986301 2.24159 -1.16563 1.28518C-1.27522 0.687422 -1.27522 -0.229141 -1.27522 -0.816936C-1.27522 -1.45455 -1.27522 -2.11208 -1.19552 -2.65006C-1.00623 -3.83562 -0.259029 -3.92528 -0.00996264 -3.92528C0.318804 -3.92528 0.976339 -3.74595 1.16563 -2.75965C1.26526 -2.20174 1.26526 -1.44458 1.26526 -0.816936C1.26526 -0.0697385 1.26526 0.607721 1.15567 1.24533C1.00623 2.19178 0.438356 2.49066 -0.00996264 2.49066ZM-0.00996264 2.49066" fill="black"/>
 </g>
 <g transform="matrix(1.000000,0.000000,0.000000,1.000000,-167.422873,-52.194511)">
  <path d="M-5.97649 2.49066M-1.78222 -0.697385C-1.78222 -1.4944 -1.83203 -2.29141 -2.18072 -3.02864C-2.639 -3.98506 -3.45594 -4.14446 -3.87437 -4.14446C-4.47213 -4.14446 -5.1994 -3.88543 -5.60787 -2.9589C-5.92668 -2.27148 -5.97649 -1.4944 -5.97649 -0.697385C-5.97649 0.0498132 -5.93664 0.946451 -5.52817 1.70361C-5.09978 2.51059 -4.3725 2.70984 -3.88433 2.70984C-3.34635 2.70984 -2.58919 2.50062 -2.15084 1.55417C-1.83203 0.86675 -1.78222 0.0896638 -1.78222 -0.697385ZM-1.78222 -0.697385M-3.88433 2.49066C-4.27288 2.49066 -4.86067 2.24159 -5.04 1.28518C-5.14959 0.687422 -5.14959 -0.229141 -5.14959 -0.816936C-5.14959 -1.45455 -5.14959 -2.11208 -5.06989 -2.65006C-4.8806 -3.83562 -4.1334 -3.92528 -3.88433 -3.92528C-3.55557 -3.92528 -2.89803 -3.74595 -2.70874 -2.75965C-2.60912 -2.20174 -2.60912 -1.44458 -2.60912 -0.816936C-2.60912 -0.0697385 -2.60912 0.607721 -2.71871 1.24533C-2.86815 2.19178 -3.43602 2.49066 -3.88433 2.49066ZM-3.88433 2.49066" fill="black"/>
  <path d="M-0.52691 2.49066M0.52913 1.96264C0.52913 1.67372 0.290027 1.43462 0.00111034 1.43462C-0.287806 1.43462 -0.52691 1.67372 -0.52691 1.96264C-0.52691 2.25156 -0.287806 2.49066 0.00111034 2.49066C0.290027 2.49066 0.52913 2.25156 0.52913 1.96264ZM0.52913 1.96264" fill="black"/>
  <path d="M1.88184 2.49066M5.85694 0.488169C5.85694 -0.697385 5.04 -1.69365 3.96404 -1.69365C3.48583 -1.69365 3.05744 -1.53425 2.69878 -1.18555L2.69878 -3.12827C2.89803 -3.06849 3.2268 -2.99875 3.5456 -2.99875C4.77101 -2.99875 5.46839 -3.90535 5.46839 -4.03487C5.46839 -4.09465 5.43851 -4.14446 5.36877 -4.14446C5.35881 -4.14446 5.33888 -4.14446 5.28907 -4.11457C5.08981 -4.02491 4.60164 -3.82565 3.93415 -3.82565C3.53564 -3.82565 3.07736 -3.89539 2.60912 -4.10461C2.52942 -4.1345 2.50949 -4.1345 2.48956 -4.1345C2.38994 -4.1345 2.38994 -4.05479 2.38994 -3.89539L2.38994 -0.946451C2.38994 -0.767123 2.38994 -0.687422 2.52942 -0.687422C2.59915 -0.687422 2.61908 -0.71731 2.65893 -0.777086C2.76852 -0.936488 3.13714 -1.47447 3.94411 -1.47447C4.46217 -1.47447 4.71123 -1.01619 4.79093 -0.836862C4.95034 -0.468244 4.97026 -0.0797011 4.97026 0.418431C4.97026 0.767123 4.97026 1.36488 4.73116 1.78331C4.49206 2.17186 4.12344 2.43088 3.66516 2.43088C2.93788 2.43088 2.37001 1.90286 2.20065 1.31507C2.23054 1.32503 2.26042 1.33499 2.37001 1.33499C2.69878 1.33499 2.86815 1.08593 2.86815 0.846824C2.86815 0.607721 2.69878 0.358655 2.37001 0.358655C2.23054 0.358655 1.88184 0.428394 1.88184 0.886675C1.88184 1.74346 2.56927 2.70984 3.68508 2.70984C4.84075 2.70984 5.85694 1.75342 5.85694 0.488169ZM5.85694 0.488169" fill="black"/>
 </g>
 <g transform="matrix(1.000000,0.000000,0.000000,1.000000,-165.958814,-82.730318)">
  <path d="M-1.60399 2.49066M0.438356 -3.88543C0.438356 -4.12453 0.438356 -4.14446 0.209215 -4.14446C-0.408468 -3.50685 -1.28518 -3.50685 -1.60399 -3.50685L-1.60399 -3.19801C-1.40473 -3.19801 -0.816936 -3.19801 -0.298879 -3.45704L-0.298879 1.70361C-0.298879 2.06227 -0.328767 2.18182 -1.2254 2.18182L-1.54421 2.18182L-1.54421 2.49066C-1.19552 2.46077 -0.328767 2.46077 0.0697385 2.46077C0.468244 2.46077 1.33499 2.46077 1.68369 2.49066L1.68369 2.18182L1.36488 2.18182C0.468244 2.18182 0.438356 2.07223 0.438356 1.70361ZM0.438356 1.70361" fill="black"/>
 </g>
 <g stroke-linecap="square">
  <path d="M-145.763 37.584L-154.765 -81.374" stroke="black"/>
 </g>
 <g stroke-linecap="butt" stroke-dasharray="none">
  <path d="M-128.784 19.61L-119.717 27.4774L-110.26 37.3371L-100.595 45.9761L-90.5969 55.249L-79.8003 75.949L-69.3513 81.4488L-58.3529 91.7689L-46.8605 107.025L-34.9946 124.336" stroke="black"/>
 </g>
 <g stroke-linecap="butt" stroke-dasharray="none">
  <path d="M-119.046 13.3055L-109.614 25.1915L-100.081 34.3607L-90.1381 46.2501L-80.1917 51.7051L-69.6512 63.585L-58.7974 75.5293L-47.4878 92.3783L-35.9787 104.287L-24.0678 118.009" stroke="black"/>
 </g>
 <g stroke-linecap="butt" stroke-dasharray="none">
  <path d="M-109.018 13.0284L-99.5502 23.9357L-89.989 31.4089L-79.9858 42.2375L-69.7005 52.9415L-59.1974 60.7979L-48.2219 73.1333L-36.8734 87.6696L-25.197 102.409L-13.1787 116.654" stroke="black"/>
 </g>
 <g stroke-linecap="butt" stroke-dasharray="none">
  <path d="M-99.323 8.34642L-89.6957 20.3388L-79.9676 28.8362L-69.8626 39.5786L-59.5694 47.0394L-48.8766 56.6531L-37.7017 73.2809L-26.344 82.8487L-14.5523 98.2709L-2.42409 111.597" stroke="black"/>
 </g>
 <g stroke-linecap="butt" stroke-dasharray="none">
  <path d="M-89.4928 7.96531L-79.8695 17.8932L-69.982 27.7351L-59.8446 36.4656L-49.4433 43.2599L-38.5005 59.2862L-27.4091 66.8162L-15.8667 81.4016L-3.99944 93.9906L8.2294 110.28" stroke="black"/>
 </g>
 <g stroke-linecap="butt" stroke-dasharray="none">
  <path d="M-79.8922 4.49716L-70.2768 11.3437L-60.1751 24.1782L-49.8901 34.176L-39.3521 41.7339L-28.4478 50.4394L-17.1304 65.2133L-5.51865 75.4503L6.45599 92.4091L18.8284 101.961" stroke="black"/>
 </g>
 <g stroke-linecap="butt" stroke-dasharray="none">
  <path d="M-70.4641 -1.78424L-60.5913 9.1882L-50.43 21.1694L-40.0617 30.2313L-29.3705 39.7789L-18.3683 47.378L-6.97384 60.0164L4.75985 71.29L16.9027 78.8392L29.2292 103.433" stroke="black"/>
 </g>
 <g stroke-linecap="butt" stroke-dasharray="none">
  <path d="M-61.1281 -9.64461L-50.9897 7.11869L-40.8107 15.9768L-30.3422 24.0183L-19.5127 35.16L-8.38013 43.6911L3.11976 51.2094L14.9571 66.9005L27.2048 76.4496L39.7627 91.5138" stroke="black"/>
 </g>
 <g stroke-linecap="butt" stroke-dasharray="none">
  <path d="M-51.6666 -11.6665L-41.4773 4.87383L-31.2339 11.7109L-20.6914 15.99L-9.73024 29.0874L1.52591 42.0157L13.0744 58.3034L25.1681 55.4833L37.506 68.8552L50.1514 84.9143" stroke="black"/>
 </g>
 <g stroke-linecap="butt" stroke-dasharray="none">
  <path d="M-42.415 -19.6547L-32.1795 -5.45666L-21.7958 0.829917L-11.0562 10.6084L-5.97267e-14 22.6668L11.3565 36.2383L23.1382 40.2222L35.2948 48.4167L47.7225 62.7706L60.5079 77.452" stroke="black"/>
 </g>
 <g stroke-linecap="butt" stroke-dasharray="none">
  <path d="M-33.1748 -26.8317L-22.922 -18.9482L-12.3541 -9.45409L-1.47887 2.71047L9.68418 15.8814L21.162 27.5805L32.8732 45.239L45.3636 41.7354L57.8358 58.0536L70.8578 68.8368" stroke="black"/>
 </g>
 <g stroke-linecap="butt" stroke-dasharray="none">
  <path d="M-23.8529 -24.5354L-13.5196 -15.0452L-2.90361 -9.77151L8.04462 0.476091L19.2329 18.3986L30.774 29.3984L42.8008 34.0287L55.1833 41.9177L67.7109 57.9395L80.9513 65.3755" stroke="black"/>
 </g>
 <g stroke-linecap="butt" stroke-dasharray="none">
  <path d="M-14.6787 -26.118L-4.27575 -21.1627L6.40688 2.08691L17.4977 -3.33668L28.664 19.8713L40.3476 26.8412L52.6274 26.4373L64.8815 42.1374L77.6676 52.8544L90.6747 67.7865" stroke="black"/>
 </g>
 <g stroke-linecap="butt" stroke-dasharray="none">
  <path d="M-5.59211 -29.8297L4.90445 -18.5567L15.673 -7.21608L26.7729 0.900754L38.0558 17.1662L49.6531 31.4225L62.3413 21.1679L74.6211 38.2249L87.4023 51.1386L101.077 54.5914" stroke="black"/>
 </g>
 <g stroke-linecap="butt" stroke-dasharray="none">
  <path d="M3.43026 -31.7609L13.9131 -8.82413L24.8367 -9.42801L36.0428 -2.3507L47.3444 15.4547L59.2874 20.2432L71.2621 35.7323L83.8111 45.1649L97.1001 48.1705L109.999 67.1198" stroke="black"/>
 </g>
 <g stroke-linecap="butt" stroke-dasharray="none">
  <path d="M12.3333 -26.7151L22.9237 -15.1361L33.8236 -5.87615L45.2576 -6.2788L56.6837 8.98929L68.6897 15.6588L80.7321 31.1616L93.7057 33.8826L106.42 50.4403L119.99 58.8137" stroke="black"/>
 </g>
 <g stroke-linecap="butt" stroke-dasharray="none">
  <path d="M21.2573 -36.524L31.9484 -24.6489L42.9595 -15.1264L54.2682 -5.09315L65.892 5.18641L78.1245 8.72411L90.4844 19.1579L103.277 28.624L116.03 45.6878L129.684 54.3803" stroke="black"/>
 </g>
 <g stroke-linecap="butt" stroke-dasharray="none">
  <path d="M30.3663 -58.9414L41.1576 -43.5543L52.6669 -46.6494L64.2016 -36.0407L75.7852 -18.2388L88.6106 -22.6442L101.322 -13.8874L113.857 5.021L127.311 14.3285L140.672 31.1771" stroke="black"/>
 </g>
 <g stroke-linecap="butt" stroke-dasharray="none">
  <path d="M39.5434 -79.449L50.5537 -66.9803L62.2102 -66.7442L73.6956 -50.0156L86.0012 -46.5443L98.0194 -28.3243L111.908 -38.7972L124.811 -22.732L138.961 -19.5969L151.797 7.62797" stroke="black"/>
 </g>
 <g stroke-linecap="butt" stroke-dasharray="none">
  <path d="M48.8139 -100.223L60.1799 -94.4295L71.7068 -83.1455L83.5802 -72.8274L95.8867 -64.5537L108.072 -46.9172L122.078 -54.7641L135.328 -41.7533L149.676 -38.2252L163.223 -18.216" stroke="black"/>
 </g>
 <g stroke-linecap="butt" stroke-dasharray="none">
  <path d="M-128.784 19.61L-119.046 13.3055L-109.018 13.0284L-99.323 8.34642L-89.4928 7.96531L-79.8922 4.49716L-70.4641 -1.78424L-61.1281 -9.64461L-51.6666 -11.6665L-42.415 -19.6547L-33.1748 -26.8317L-23.8529 -24.5354L-14.6787 -26.118L-5.59211 -29.8297L3.43026 -31.7609L12.3333 -26.7151L21.2573 -36.524L30.3663 -58.9414L39.5434 -79.449L48.8139 -100.223" stroke="black"/>
 </g>
 <g stroke-linecap="butt" stroke-dasharray="none">
  <path d="M-119.717 27.4774L-109.614 25.1915L-99.5502 23.9357L-89.6957 20.3388L-79.8695 17.8932L-70.2768 11.3437L-60.5913 9.1882L-50.9897 7.11869L-41.4773 4.87383L-32.1795 -5.45666L-22.922 -18.9482L-13.5196 -15.0452L-4.27575 -21.1627L4.90445 -18.5567L13.9131 -8.82413L22.9237 -15.1361L31.9484 -24.6489L41.1576 -43.5543L50.5537 -66.9803L60.1799 -94.4295" stroke="black"/>
 </g>
 <g stroke-linecap="butt" stroke-dasharray="none">
  <path d="M-110.26 37.3371L-100.081 34.3607L-89.989 31.4089L-79.9676 28.8362L-69.982 27.7351L-60.1751 24.1782L-50.43 21.1694L-40.8107 15.9768L-31.2339 11.7109L-21.7958 0.829917L-12.3541 -9.45409L-2.90361 -9.77151L6.40688 2.08691L15.673 -7.21608L24.8367 -9.42801L33.8236 -5.87615L42.9595 -15.1264L52.6669 -46.6494L62.2102 -66.7442L71.7068 -83.1455" stroke="black"/>
 </g>
 <g stroke-linecap="butt" stroke-dasharray="none">
  <path d="M-100.595 45.9761L-90.1381 46.2501L-79.9858 42.2375L-69.8626 39.5786L-59.8446 36.4656L-49.8901 34.176L-40.0617 30.2313L-30.3422 24.0183L-20.6914 15.99L-11.0562 10.6084L-1.47887 2.71047L8.04462 0.476091L17.4977 -3.33668L26.7729 0.900754L36.0428 -2.3507L45.2576 -6.2788L54.2682 -5.09315L64.2016 -36.0407L73.6956 -50.0156L83.5802 -72.8274" stroke="black"/>
 </g>
 <g stroke-linecap="butt" stroke-dasharray="none">
  <path d="M-90.5969 55.249L-80.1917 51.7051L-69.7005 52.9415L-59.5694 47.0394L-49.4433 43.2599L-39.3521 41.7339L-29.3705 39.7789L-19.5127 35.16L-9.73024 29.0874L-5.97267e-14 22.6668L9.68418 15.8814L19.2329 18.3986L28.664 19.8713L38.0558 17.1662L47.3444 15.4547L56.6837 8.98929L65.892 5.18641L75.7852 -18.2388L86.0012 -46.5443L95.8867 -64.5537" stroke="black"/>
 </g>
 <g stroke-linecap="butt" stroke-dasharray="none">
  <path d="M-79.8003 75.949L-69.6512 63.585L-59.1974 60.7979L-48.8766 56.6531L-38.5005 59.2862L-28.4478 50.4394L-18.3683 47.378L-8.38013 43.6911L1.52591 42.0157L11.3565 36.2383L21.162 27.5805L30.774 29.3984L40.3476 26.8412L49.6531 31.4225L59.2874 20.2432L68.6897 15.6588L78.1245 8.72411L88.6106 -22.6442L98.0194 -28.3243L108.072 -46.9172" stroke="black"/>
 </g>
 <g stroke-linecap="butt" stroke-dasharray="none">
  <path d="M-69.3513 81.4488L-58.7974 75.5293L-48.2219 73.1333L-37.7017 73.2809L-27.4091 66.8162L-17.1304 65.2133L-6.97384 60.0164L3.11976 51.2094L13.0744 58.3034L23.1382 40.2222L32.8732 45.239L42.8008 34.0287L52.6274 26.4373L62.3413 21.1679L71.2621 35.7323L80.7321 31.1616L90.4844 19.1579L101.322 -13.8874L111.908 -38.7972L122.078 -54.7641" stroke="black"/>
 </g>
 <g stroke-linecap="butt" stroke-dasharray="none">
  <path d="M-58.3529 91.7689L-47.4878 92.3783L-36.8734 87.6696L-26.344 82.8487L-15.8667 81.4016L-5.51865 75.4503L4.75985 71.29L14.9571 66.9005L25.1681 55.4833L35.2948 48.4167L45.3636 41.7354L55.1833 41.9177L64.8815 42.1374L74.6211 38.2249L83.8111 45.1649L93.7057 33.8826L103.277 28.624L113.857 5.021L124.811 -22.732L135.328 -41.7533" stroke="black"/>
 </g>
 <g stroke-linecap="butt" stroke-dasharray="none">
  <path d="M-46.8605 107.025L-35.9787 104.287L-25.197 102.409L-14.5523 98.2709L-3.99944 93.9906L6.45599 92.4091L16.9027 78.8392L27.2048 76.4496L37.506 68.8552L47.7225 62.7706L57.8358 58.0536L67.7109 57.9395L77.6676 52.8544L87.4023 51.1386L97.1001 48.1705L106.42 50.4403L116.03 45.6878L127.311 14.3285L138.961 -19.5969L149.676 -38.2252" stroke="black"/>
 </g>
 <g stroke-linecap="butt" stroke-dasharray="none">
  <path d="M-34.9946 124.336L-24.0678 118.009L-13.1787 116.654L-2.42409 111.597L8.2294 110.28L18.8284 101.961L29.2292 103.433L39.7627 91.5138L50.1514 84.9143L60.5079 77.452L70.8578 68.8368L80.9513 65.3755L90.6747 67.7865L101.077 54.5914L109.999 67.1198L119.99 58.8137L129.684 54.3803L140.672 31.1771L151.797 7.62797L163.223 -18.216" stroke="black"/>
 </g>
</svg>
