<?xml version="1.0" encoding="utf-8"?>
<svg xmlns="http://www.w3.org/2000/svg" fill="none" version="1.1" viewBox="-178.074 -100.44 350.615 265.118" x="-178.074pt" y="-100.44pt" width="350.615pt" height="265.118pt" stroke-width="0.566929" stroke-miterlimit="10.000000">
 <path d="M32.8441 -13.6428L36.1138 -14.5806" stroke="black"/>
 <path d="M47.2331 -3.37288L49.2505 -3.96455" stroke="black"/>
 <path d="M59.5722 7.98732L62.8302 7.00965" stroke="black"/>
 <path d="M74.8663 18.9777L76.8759 18.3604" stroke="black"/>
 <path d="M88.1672 31.1283L91.412 30.1073" stroke="black"/>
 <path d="M104.464 42.9169L106.464 42.2717" stroke="black"/>
 <path d="M118.832 55.944L122.061 54.876" stroke="black"/>
 <path d="M136.242 68.6202L138.233 67.9447" stroke="black"/>
 <path d="M151.799 82.6231L155.011 81.5039" stroke="black"/>
 <g stroke-linecap="square">
  <path d="M36.1138 -14.5806L155.011 81.5039" stroke="black"/>
 </g>
 <path d="M-143.514 40.1358L-145.763 37.584" stroke="black"/>
 <path d="M-119.995 32.1457L-121.424 30.6031" stroke="black"/>
 <path d="M-95.2011 26.2027L-97.57 23.7616" stroke="black"/>
 <path d="M-72.6906 18.5309L-74.1881 17.0554" stroke="black"/>
 <path d="M-48.7903 12.8153L-51.264 10.4805" stroke="black"/>
 <path d="M-27.2262 5.44437L-28.7843 4.03298" stroke="black"/>
 <path d="M-4.17086 -0.0569184L-6.73619 -2.2907" stroke="black"/>
 <path d="M16.5036 -7.14356L14.8925 -8.4941" stroke="black"/>
 <path d="M38.7595 -12.4426L36.1138 -14.5806" stroke="black"/>
 <g stroke-linecap="square">
  <path d="M-145.763 37.584L36.1138 -14.5806" stroke="black"/>
 </g>
 <path d="M-142.493 36.6462L-145.763 37.584" stroke="black"/>
 <path d="M-132.786 49.4262L-134.804 50.0179" stroke="black"/>
 <path d="M-120.185 61.9289L-123.443 62.9066" stroke="black"/>
 <path d="M-109.65 75.6582L-111.659 76.2755" stroke="black"/>
 <path d="M-96.1831 89.1312L-99.4279 90.1522" stroke="black"/>
 <path d="M-84.7223 103.921L-86.7232 104.566" stroke="black"/>
 <path d="M-70.2874 118.481L-73.517 119.548" stroke="black"/>
 <path d="M-57.7883 134.459L-59.7791 135.134" stroke="black"/>
 <path d="M-42.2646 150.241L-45.4767 151.361" stroke="black"/>
 <g transform="matrix(1.000000,0.000000,0.000000,1.000000,-157.280237,40.887297)">
  <path d="M-2.10212 2.49066M2.09215 -0.697385C2.09215 -1.4944 2.04234 -2.29141 1.69365 -3.02864C1.23537 -3.98506 0.418431 -4.14446 4.44089e-16 -4.14446C-0.597758 -4.14446 -1.32503 -3.88543 -1.7335 -2.9589C-2.0523 -2.27148 -2.10212 -1.4944 -2.10212 -0.697385C-2.10212 0.0498132 -2.06227 0.946451 -1.6538 1.70361C-1.2254 2.51059 -0.498132 2.70984 -0.00996264 2.70984C0.52802 2.70984 1.28518 2.50062 1.72354 1.55417C2.04234 0.86675 2.09215 0.0896638 2.09215 -0.697385ZM2.09215 -0.697385M-0.00996264 2.49066C-0.398506 2.49066 -0.986301 2.24159 -1.16563 1.28518C-1.27522 0.687422 -1.27522 -0.229141 -1.27522 -0.816936C-1.27522 -1.45455 -1.27522 -2.11208 -1.19552 -2.65006C-1.00623 -3.83562 -0.259029 -3.92528 -0.00996264 -3.92528C0.318804 -3.92528 0.976339 -3.74595 1.16563 -2.75965C1.26526 -2.20174 1.26526 -1.44458 1.26526 -0.816936C1.26526 -0.0697385 1.26526 0.607721 1.15567 1.24533C1.00623 2.19178 0.438356 2.49066 -0.00996264 2.49066ZM-0.00996264 2.49066" fill="black"/>
 </g>
 <g transform="matrix(1.000000,0.000000,0.000000,1.000000,-138.509155,67.427634)">
  <path d="M-5.8669 2.49066M-5.09978 1.72354L-4.04374 0.697385C-2.48956 -0.67746 -1.89181 -1.21544 -1.89181 -2.21171C-1.89181 -3.34745 -2.78844 -4.14446 -4.00389 -4.14446C-5.12966 -4.14446 -5.8669 -3.2279 -5.8669 -2.34122C-5.8669 -1.78331 -5.36877 -1.78331 -5.33888 -1.78331C-5.16952 -1.78331 -4.82082 -1.90286 -4.82082 -2.31133C-4.82082 -2.57036 -5.00015 -2.82939 -5.34884 -2.82939C-5.42854 -2.82939 -5.44847 -2.82939 -5.47836 -2.81943C-5.24922 -3.467 -4.71123 -3.83562 -4.1334 -3.83562C-3.2268 -3.83562 -2.79841 -3.02864 -2.79841 -2.21171C-2.79841 -1.41469 -3.29654 -0.627646 -3.84448 -0.00996264L-5.75731 2.12204C-5.8669 2.23163 -5.8669 2.25156 -5.8669 2.49066L-2.17076 2.49066L-1.89181 0.757161L-2.14087 0.757161C-2.19069 1.05604 -2.26042 1.4944 -2.36005 1.64384C-2.42979 1.72354 -3.08732 1.72354 -3.3065 1.72354ZM-3.3065 1.72354" fill="black"/>
  <path d="M-0.52691 2.49066M0.52913 1.96264C0.52913 1.67372 0.290027 1.43462 0.00111034 1.43462C-0.287806 1.43462 -0.52691 1.67372 -0.52691 1.96264C-0.52691 2.25156 -0.287806 2.49066 0.00111034 2.49066C0.290027 2.49066 0.52913 2.25156 0.52913 1.96264ZM0.52913 1.96264" fill="black"/>
  <path d="M1.88184 2.49066M5.85694 0.488169C5.85694 -0.697385 5.04 -1.69365 3.96404 -1.69365C3.48583 -1.69365 3.05744 -1.53425 2.69878 -1.18555L2.69878 -3.12827C2.89803 -3.06849 3.2268 -2.99875 3.5456 -2.99875C4.77101 -2.99875 5.46839 -3.90535 5.46839 -4.03487C5.46839 -4.09465 5.43851 -4.14446 5.36877 -4.14446C5.35881 -4.14446 5.33888 -4.14446 5.28907 -4.11457C5.08981 -4.02491 4.60164 -3.82565 3.93415 -3.82565C3.53564 -3.82565 3.07736 -3.89539 2.60912 -4.10461C2.52942 -4.1345 2.50949 -4.1345 2.48956 -4.1345C2.38994 -4.1345 2.38994 -4.05479 2.38994 -3.89539L2.38994 -0.946451C2.38994 -0.767123 2.38994 -0.687422 2.52942 -0.687422C2.59915 -0.687422 2.61908 -0.71731 2.65893 -0.777086C2.76852 -0.936488 3.13714 -1.47447 3.94411 -1.47447C4.46217 -1.47447 4.71123 -1.01619 4.79093 -0.836862C4.95034 -0.468244 4.97026 -0.0797011 4.97026 0.418431C4.97026 0.767123 4.97026 1.36488 4.73116 1.78331C4.49206 2.17186 4.12344 2.43088 3.66516 2.43088C2.93788 2.43088 2.37001 1.90286 2.20065 1.31507C2.23054 1.32503 2.26042 1.33499 2.37001 1.33499C2.69878 1.33499 2.86815 1.08593 2.86815 0.846824C2.86815 0.607721 2.69878 0.358655 2.37001 0.358655C2.23054 0.358655 1.88184 0.428394 1.88184 0.886675C1.88184 1.74346 2.56927 2.70984 3.68508 2.70984C4.84075 2.70984 5.85694 1.75342 5.85694 0.488169ZM5.85694 0.488169" fill="black"/>
 </g>
 <g transform="matrix(1.000000,0.000000,0.000000,1.000000,-110.931134,93.771481)">
  <path d="M-1.99253 2.49066M1.98257 0.488169C1.98257 -0.697385 1.16563 -1.69365 0.0896638 -1.69365C-0.388543 -1.69365 -0.816936 -1.53425 -1.17559 -1.18555L-1.17559 -3.12827C-0.976339 -3.06849 -0.647572 -2.99875 -0.328767 -2.99875C0.896638 -2.99875 1.59402 -3.90535 1.59402 -4.03487C1.59402 -4.09465 1.56413 -4.14446 1.4944 -4.14446C1.48443 -4.14446 1.46451 -4.14446 1.41469 -4.11457C1.21544 -4.02491 0.727273 -3.82565 0.0597758 -3.82565C-0.33873 -3.82565 -0.797011 -3.89539 -1.26526 -4.10461C-1.34496 -4.1345 -1.36488 -4.1345 -1.38481 -4.1345C-1.48443 -4.1345 -1.48443 -4.05479 -1.48443 -3.89539L-1.48443 -0.946451C-1.48443 -0.767123 -1.48443 -0.687422 -1.34496 -0.687422C-1.27522 -0.687422 -1.25529 -0.71731 -1.21544 -0.777086C-1.10585 -0.936488 -0.737235 -1.47447 0.0697385 -1.47447C0.587796 -1.47447 0.836862 -1.01619 0.916563 -0.836862C1.07597 -0.468244 1.09589 -0.0797011 1.09589 0.418431C1.09589 0.767123 1.09589 1.36488 0.856787 1.78331C0.617684 2.17186 0.249066 2.43088 -0.209215 2.43088C-0.936488 2.43088 -1.50436 1.90286 -1.67372 1.31507C-1.64384 1.32503 -1.61395 1.33499 -1.50436 1.33499C-1.17559 1.33499 -1.00623 1.08593 -1.00623 0.846824C-1.00623 0.607721 -1.17559 0.358655 -1.50436 0.358655C-1.64384 0.358655 -1.99253 0.428394 -1.99253 0.886675C-1.99253 1.74346 -1.30511 2.70984 -0.18929 2.70984C0.966376 2.70984 1.98257 1.75342 1.98257 0.488169ZM1.98257 0.488169" fill="black"/>
 </g>
 <g transform="matrix(1.000000,0.000000,0.000000,1.000000,-88.500014,124.502945)">
  <path d="M-5.80712 2.49066M-1.62282 -3.57659C-1.53315 -3.69614 -1.53315 -3.71606 -1.53315 -3.92528L-3.95407 -3.92528C-5.16952 -3.92528 -5.18944 -4.05479 -5.22929 -4.24408L-5.47836 -4.24408L-5.80712 -2.19178L-5.55806 -2.19178C-5.52817 -2.35118 -5.43851 -2.97883 -5.30899 -3.09838C-5.23925 -3.15816 -4.46217 -3.15816 -4.33265 -3.15816L-2.27039 -3.15816C-2.37998 -2.99875 -3.16702 -1.91283 -3.3862 -1.58406C-4.28284 -0.239103 -4.61161 1.1457 -4.61161 2.16189C-4.61161 2.26152 -4.61161 2.70984 -4.15333 2.70984C-3.69504 2.70984 -3.69504 2.26152 -3.69504 2.16189L-3.69504 1.6538C-3.69504 1.10585 -3.66516 0.557908 -3.58546 0.0199253C-3.5456 -0.209215 -3.40613 -1.066 -2.96777 -1.68369ZM-2.96777 -1.68369" fill="black"/>
  <path d="M-0.52691 2.49066M0.52913 1.96264C0.52913 1.67372 0.290027 1.43462 0.00111034 1.43462C-0.287806 1.43462 -0.52691 1.67372 -0.52691 1.96264C-0.52691 2.25156 -0.287806 2.49066 0.00111034 2.49066C0.290027 2.49066 0.52913 2.25156 0.52913 1.96264ZM0.52913 1.96264" fill="black"/>
  <path d="M1.88184 2.49066M5.85694 0.488169C5.85694 -0.697385 5.04 -1.69365 3.96404 -1.69365C3.48583 -1.69365 3.05744 -1.53425 2.69878 -1.18555L2.69878 -3.12827C2.89803 -3.06849 3.2268 -2.99875 3.5456 -2.99875C4.77101 -2.99875 5.46839 -3.90535 5.46839 -4.03487C5.46839 -4.09465 5.43851 -4.14446 5.36877 -4.14446C5.35881 -4.14446 5.33888 -4.14446 5.28907 -4.11457C5.08981 -4.02491 4.60164 -3.82565 3.93415 -3.82565C3.53564 -3.82565 3.07736 -3.89539 2.60912 -4.10461C2.52942 -4.1345 2.50949 -4.1345 2.48956 -4.1345C2.38994 -4.1345 2.38994 -4.05479 2.38994 -3.89539L2.38994 -0.946451C2.38994 -0.767123 2.38994 -0.687422 2.52942 -0.687422C2.59915 -0.687422 2.61908 -0.71731 2.65893 -0.777086C2.76852 -0.936488 3.13714 -1.47447 3.94411 -1.47447C4.46217 -1.47447 4.71123 -1.01619 4.79093 -0.836862C4.95034 -0.468244 4.97026 -0.0797011 4.97026 0.418431C4.97026 0.767123 4.97026 1.36488 4.73116 1.78331C4.49206 2.17186 4.12344 2.43088 3.66516 2.43088C2.93788 2.43088 2.37001 1.90286 2.20065 1.31507C2.23054 1.32503 2.26042 1.33499 2.37001 1.33499C2.69878 1.33499 2.86815 1.08593 2.86815 0.846824C2.86815 0.607721 2.69878 0.358655 2.37001 0.358655C2.23054 0.358655 1.88184 0.428394 1.88184 0.886675C1.88184 1.74346 2.56927 2.70984 3.68508 2.70984C4.84075 2.70984 5.85694 1.75342 5.85694 0.488169ZM5.85694 0.488169" fill="black"/>
 </g>
 <g transform="matrix(1.000000,0.000000,0.000000,1.000000,-59.170220,156.131936)">
  <path d="M-4.09466 2.49066M-2.05232 -3.88543C-2.05232 -4.12453 -2.05232 -4.14446 -2.28146 -4.14446C-2.89914 -3.50685 -3.77586 -3.50685 -4.09466 -3.50685L-4.09466 -3.19801C-3.89541 -3.19801 -3.30761 -3.19801 -2.78955 -3.45704L-2.78955 1.70361C-2.78955 2.06227 -2.81944 2.18182 -3.71608 2.18182L-4.03488 2.18182L-4.03488 2.49066C-3.68619 2.46077 -2.81944 2.46077 -2.42094 2.46077C-2.02243 2.46077 -1.15568 2.46077 -0.806989 2.49066L-0.806989 2.18182L-1.12579 2.18182C-2.02243 2.18182 -2.05232 2.07223 -2.05232 1.70361ZM-2.05232 1.70361M0.388528 2.49066M4.5828 -0.697385C4.5828 -1.4944 4.53299 -2.29141 4.18429 -3.02864C3.72601 -3.98506 2.90908 -4.14446 2.49064 -4.14446C1.89289 -4.14446 1.16561 -3.88543 0.757145 -2.9589C0.438341 -2.27148 0.388528 -1.4944 0.388528 -0.697385C0.388528 0.0498132 0.428378 0.946451 0.836847 1.70361C1.26524 2.51059 1.99251 2.70984 2.48068 2.70984C3.01866 2.70984 3.77583 2.50062 4.21418 1.55417C4.53299 0.86675 4.5828 0.0896638 4.5828 -0.697385ZM4.5828 -0.697385M2.48068 2.49066C2.09214 2.49066 1.50434 2.24159 1.32502 1.28518C1.21543 0.687422 1.21543 -0.229141 1.21543 -0.816936C1.21543 -1.45455 1.21543 -2.11208 1.29513 -2.65006C1.48442 -3.83562 2.23162 -3.92528 2.48068 -3.92528C2.80945 -3.92528 3.46698 -3.74595 3.65627 -2.75965C3.7559 -2.20174 3.7559 -1.44458 3.7559 -0.816936C3.7559 -0.0697385 3.7559 0.607721 3.64631 1.24533C3.49687 2.19178 2.929 2.49066 2.48068 2.49066ZM2.48068 2.49066" fill="black"/>
 </g>
 <g stroke-linecap="square">
  <path d="M-145.763 37.584L-45.4767 151.361" stroke="black"/>
 </g>
 <path d="M-47.726 148.809L-45.4767 151.361" stroke="black"/>
 <path d="M-19.7875 140.369L-18.3592 141.912" stroke="black"/>
 <path d="M5.76103 130.241L8.12995 132.682" stroke="black"/>
 <path d="M32.5147 122.189L34.0122 123.664" stroke="black"/>
 <path d="M56.8347 112.515L59.3083 114.85" stroke="black"/>
 <path d="M82.4798 104.822L84.0379 106.233" stroke="black"/>
 <path d="M105.654 95.5739L108.22 97.8077" stroke="black"/>
 <path d="M130.261 88.2159L131.872 89.5665" stroke="black"/>
 <path d="M152.366 79.3658L155.011 81.5039" stroke="black"/>
 <g transform="matrix(1.000000,0.000000,0.000000,1.000000,-36.815361,161.187158)">
  <path d="M-2.10212 2.49066M2.09215 -0.697385C2.09215 -1.4944 2.04234 -2.29141 1.69365 -3.02864C1.23537 -3.98506 0.418431 -4.14446 4.44089e-16 -4.14446C-0.597758 -4.14446 -1.32503 -3.88543 -1.7335 -2.9589C-2.0523 -2.27148 -2.10212 -1.4944 -2.10212 -0.697385C-2.10212 0.0498132 -2.06227 0.946451 -1.6538 1.70361C-1.2254 2.51059 -0.498132 2.70984 -0.00996264 2.70984C0.52802 2.70984 1.28518 2.50062 1.72354 1.55417C2.04234 0.86675 2.09215 0.0896638 2.09215 -0.697385ZM2.09215 -0.697385M-0.00996264 2.49066C-0.398506 2.49066 -0.986301 2.24159 -1.16563 1.28518C-1.27522 0.687422 -1.27522 -0.229141 -1.27522 -0.816936C-1.27522 -1.45455 -1.27522 -2.11208 -1.19552 -2.65006C-1.00623 -3.83562 -0.259029 -3.92528 -0.00996264 -3.92528C0.318804 -3.92528 0.976339 -3.74595 1.16563 -2.75965C1.26526 -2.20174 1.26526 -1.44458 1.26526 -0.816936C1.26526 -0.0697385 1.26526 0.607721 1.15567 1.24533C1.00623 2.19178 0.438356 2.49066 -0.00996264 2.49066ZM-0.00996264 2.49066" fill="black"/>
 </g>
 <g transform="matrix(1.000000,0.000000,0.000000,1.000000,17.224163,142.053623)">
  <path d="M-1.99253 2.49066M1.98257 0.488169C1.98257 -0.697385 1.16563 -1.69365 0.0896638 -1.69365C-0.388543 -1.69365 -0.816936 -1.53425 -1.17559 -1.18555L-1.17559 -3.12827C-0.976339 -3.06849 -0.647572 -2.99875 -0.328767 -2.99875C0.896638 -2.99875 1.59402 -3.90535 1.59402 -4.03487C1.59402 -4.09465 1.56413 -4.14446 1.4944 -4.14446C1.48443 -4.14446 1.46451 -4.14446 1.41469 -4.11457C1.21544 -4.02491 0.727273 -3.82565 0.0597758 -3.82565C-0.33873 -3.82565 -0.797011 -3.89539 -1.26526 -4.10461C-1.34496 -4.1345 -1.36488 -4.1345 -1.38481 -4.1345C-1.48443 -4.1345 -1.48443 -4.05479 -1.48443 -3.89539L-1.48443 -0.946451C-1.48443 -0.767123 -1.48443 -0.687422 -1.34496 -0.687422C-1.27522 -0.687422 -1.25529 -0.71731 -1.21544 -0.777086C-1.10585 -0.936488 -0.737235 -1.47447 0.0697385 -1.47447C0.587796 -1.47447 0.836862 -1.01619 0.916563 -0.836862C1.07597 -0.468244 1.09589 -0.0797011 1.09589 0.418431C1.09589 0.767123 1.09589 1.36488 0.856787 1.78331C0.617684 2.17186 0.249066 2.43088 -0.209215 2.43088C-0.936488 2.43088 -1.50436 1.90286 -1.67372 1.31507C-1.64384 1.32503 -1.61395 1.33499 -1.50436 1.33499C-1.17559 1.33499 -1.00623 1.08593 -1.00623 0.846824C-1.00623 0.607721 -1.17559 0.358655 -1.50436 0.358655C-1.64384 0.358655 -1.99253 0.428394 -1.99253 0.886675C-1.99253 1.74346 -1.30511 2.70984 -0.18929 2.70984C0.966376 2.70984 1.98257 1.75342 1.98257 0.488169ZM1.98257 0.488169" fill="black"/>
 </g>
 <g transform="matrix(1.000000,0.000000,0.000000,1.000000,70.088333,125.025352)">
  <path d="M-4.09466 2.49066M-2.05232 -3.88543C-2.05232 -4.12453 -2.05232 -4.14446 -2.28146 -4.14446C-2.89914 -3.50685 -3.77586 -3.50685 -4.09466 -3.50685L-4.09466 -3.19801C-3.89541 -3.19801 -3.30761 -3.19801 -2.78955 -3.45704L-2.78955 1.70361C-2.78955 2.06227 -2.81944 2.18182 -3.71608 2.18182L-4.03488 2.18182L-4.03488 2.49066C-3.68619 2.46077 -2.81944 2.46077 -2.42094 2.46077C-2.02243 2.46077 -1.15568 2.46077 -0.806989 2.49066L-0.806989 2.18182L-1.12579 2.18182C-2.02243 2.18182 -2.05232 2.07223 -2.05232 1.70361ZM-2.05232 1.70361M0.388528 2.49066M4.5828 -0.697385C4.5828 -1.4944 4.53299 -2.29141 4.18429 -3.02864C3.72601 -3.98506 2.90908 -4.14446 2.49064 -4.14446C1.89289 -4.14446 1.16561 -3.88543 0.757145 -2.9589C0.438341 -2.27148 0.388528 -1.4944 0.388528 -0.697385C0.388528 0.0498132 0.428378 0.946451 0.836847 1.70361C1.26524 2.51059 1.99251 2.70984 2.48068 2.70984C3.01866 2.70984 3.77583 2.50062 4.21418 1.55417C4.53299 0.86675 4.5828 0.0896638 4.5828 -0.697385ZM4.5828 -0.697385M2.48068 2.49066C2.09214 2.49066 1.50434 2.24159 1.32502 1.28518C1.21543 0.687422 1.21543 -0.229141 1.21543 -0.816936C1.21543 -1.45455 1.21543 -2.11208 1.29513 -2.65006C1.48442 -3.83562 2.23162 -3.92528 2.48068 -3.92528C2.80945 -3.92528 3.46698 -3.74595 3.65627 -2.75965C3.7559 -2.20174 3.7559 -1.44458 3.7559 -0.816936C3.7559 -0.0697385 3.7559 0.607721 3.64631 1.24533C3.49687 2.19178 2.929 2.49066 2.48068 2.49066ZM2.48068 2.49066" fill="black"/>
 </g>
 <g transform="matrix(1.000000,0.000000,0.000000,1.000000,119.412402,107.553781)">
  <path d="M-4.09466 2.49066M-2.05232 -3.88543C-2.05232 -4.12453 -2.05232 -4.14446 -2.28146 -4.14446C-2.89914 -3.50685 -3.77586 -3.50685 -4.09466 -3.50685L-4.09466 -3.19801C-3.89541 -3.19801 -3.30761 -3.19801 -2.78955 -3.45704L-2.78955 1.70361C-2.78955 2.06227 -2.81944 2.18182 -3.71608 2.18182L-4.03488 2.18182L-4.03488 2.49066C-3.68619 2.46077 -2.81944 2.46077 -2.42094 2.46077C-2.02243 2.46077 -1.15568 2.46077 -0.806989 2.49066L-0.806989 2.18182L-1.12579 2.18182C-2.02243 2.18182 -2.05232 2.07223 -2.05232 1.70361ZM-2.05232 1.70361M0.498117 2.49066M4.47321 0.488169C4.47321 -0.697385 3.65627 -1.69365 2.58031 -1.69365C2.1021 -1.69365 1.67371 -1.53425 1.31505 -1.18555L1.31505 -3.12827C1.51431 -3.06849 1.84307 -2.99875 2.16188 -2.99875C3.38728 -2.99875 4.08467 -3.90535 4.08467 -4.03487C4.08467 -4.09465 4.05478 -4.14446 3.98504 -4.14446C3.97508 -4.14446 3.95515 -4.14446 3.90534 -4.11457C3.70609 -4.02491 3.21792 -3.82565 2.55042 -3.82565C2.15192 -3.82565 1.69363 -3.89539 1.22539 -4.10461C1.14569 -4.1345 1.12576 -4.1345 1.10584 -4.1345C1.00621 -4.1345 1.00621 -4.05479 1.00621 -3.89539L1.00621 -0.946451C1.00621 -0.767123 1.00621 -0.687422 1.14569 -0.687422C1.21543 -0.687422 1.23535 -0.71731 1.2752 -0.777086C1.38479 -0.936488 1.75341 -1.47447 2.56038 -1.47447C3.07844 -1.47447 3.32751 -1.01619 3.40721 -0.836862C3.56661 -0.468244 3.58654 -0.0797011 3.58654 0.418431C3.58654 0.767123 3.58654 1.36488 3.34743 1.78331C3.10833 2.17186 2.73971 2.43088 2.28143 2.43088C1.55416 2.43088 0.986286 1.90286 0.816921 1.31507C0.846809 1.32503 0.876697 1.33499 0.986286 1.33499C1.31505 1.33499 1.48442 1.08593 1.48442 0.846824C1.48442 0.607721 1.31505 0.358655 0.986286 0.358655C0.846809 0.358655 0.498117 0.428394 0.498117 0.886675C0.498117 1.74346 1.18554 2.70984 2.30135 2.70984C3.45702 2.70984 4.47321 1.75342 4.47321 0.488169ZM4.47321 0.488169" fill="black"/>
 </g>
 <g transform="matrix(1.000000,0.000000,0.000000,1.000000,166.560103,90.836631)">
  <path d="M-4.4832 2.49066M-3.71608 1.72354L-2.66004 0.697385C-1.10587 -0.67746 -0.50811 -1.21544 -0.50811 -2.21171C-0.50811 -3.34745 -1.40475 -4.14446 -2.62019 -4.14446C-3.74597 -4.14446 -4.4832 -3.2279 -4.4832 -2.34122C-4.4832 -1.78331 -3.98507 -1.78331 -3.95518 -1.78331C-3.78582 -1.78331 -3.43713 -1.90286 -3.43713 -2.31133C-3.43713 -2.57036 -3.61645 -2.82939 -3.96515 -2.82939C-4.04485 -2.82939 -4.06477 -2.82939 -4.09466 -2.81943C-3.86552 -3.467 -3.32754 -3.83562 -2.7497 -3.83562C-1.8431 -3.83562 -1.41471 -3.02864 -1.41471 -2.21171C-1.41471 -1.41469 -1.91284 -0.627646 -2.46079 -0.00996264L-4.37361 2.12204C-4.4832 2.23163 -4.4832 2.25156 -4.4832 2.49066L-0.787064 2.49066L-0.50811 0.757161L-0.757176 0.757161C-0.806989 1.05604 -0.876728 1.4944 -0.976354 1.64384C-1.04609 1.72354 -1.70363 1.72354 -1.9228 1.72354ZM-1.9228 1.72354M0.388528 2.49066M4.5828 -0.697385C4.5828 -1.4944 4.53299 -2.29141 4.18429 -3.02864C3.72601 -3.98506 2.90908 -4.14446 2.49064 -4.14446C1.89289 -4.14446 1.16561 -3.88543 0.757145 -2.9589C0.438341 -2.27148 0.388528 -1.4944 0.388528 -0.697385C0.388528 0.0498132 0.428378 0.946451 0.836847 1.70361C1.26524 2.51059 1.99251 2.70984 2.48068 2.70984C3.01866 2.70984 3.77583 2.50062 4.21418 1.55417C4.53299 0.86675 4.5828 0.0896638 4.5828 -0.697385ZM4.5828 -0.697385M2.48068 2.49066C2.09214 2.49066 1.50434 2.24159 1.32502 1.28518C1.21543 0.687422 1.21543 -0.229141 1.21543 -0.816936C1.21543 -1.45455 1.21543 -2.11208 1.29513 -2.65006C1.48442 -3.83562 2.23162 -3.92528 2.48068 -3.92528C2.80945 -3.92528 3.46698 -3.74595 3.65627 -2.75965C3.7559 -2.20174 3.7559 -1.44458 3.7559 -0.816936C3.7559 -0.0697385 3.7559 0.607721 3.64631 1.24533C3.49687 2.19178 2.929 2.49066 2.48068 2.49066ZM2.48068 2.49066" fill="black"/>
 </g>
 <g stroke-linecap="square">
  <path d="M-45.4767 151.361L155.011 81.5039" stroke="black"/>
 </g>
 <path d="M-142.397 38.0755L-145.763 37.584" stroke="black"/>
 <path d="M-144.749 23.7743L-146.831 23.4766" stroke="black"/>
 <path d="M-144.545 9.63286L-147.914 9.16094" stroke="black"/>
 <path d="M-146.93 -5.08201L-149.013 -5.36748" stroke="black"/>
 <path d="M-146.758 -19.6618L-150.129 -20.1135" stroke="black"/>
 <path d="M-149.177 -34.8092L-151.262 -35.082" stroke="black"/>
 <path d="M-149.037 -49.8473L-152.412 -50.2781" stroke="black"/>
 <path d="M-151.493 -65.4473L-153.579 -65.707" stroke="black"/>
 <path d="M-151.388 -80.9649L-154.765 -81.374" stroke="black"/>
 <g transform="matrix(1.000000,0.000000,0.000000,1.000000,-160.884751,35.375927)">
  <path d="M-5.53813 2.49066M0.200348 0.199253C0.369713 0.199253 0.54904 0.199253 0.54904 -4.44089e-16C0.54904 -0.199253 0.369713 -0.199253 0.200348 -0.199253L-5.18944 -0.199253C-5.35881 -0.199253 -5.53813 -0.199253 -5.53813 -4.44089e-16C-5.53813 0.199253 -5.35881 0.199253 -5.18944 0.199253ZM-5.18944 0.199253" fill="black"/>
  <path d="M2.27039 2.49066M4.31273 -3.88543C4.31273 -4.12453 4.31273 -4.14446 4.08359 -4.14446C3.4659 -3.50685 2.58919 -3.50685 2.27039 -3.50685L2.27039 -3.19801C2.46964 -3.19801 3.05744 -3.19801 3.57549 -3.45704L3.57549 1.70361C3.57549 2.06227 3.5456 2.18182 2.64897 2.18182L2.33016 2.18182L2.33016 2.49066C2.67886 2.46077 3.5456 2.46077 3.94411 2.46077C4.34262 2.46077 5.20937 2.46077 5.55806 2.49066L5.55806 2.18182L5.23925 2.18182C4.34262 2.18182 4.31273 2.07223 4.31273 1.70361ZM4.31273 1.70361" fill="black"/>
 </g>
 <g transform="matrix(1.000000,0.000000,0.000000,1.000000,-166.834150,6.510396)">
  <path d="M-9.4125 2.49066M-3.67402 0.199253C-3.50466 0.199253 -3.32533 0.199253 -3.32533 -4.44089e-16C-3.32533 -0.199253 -3.50466 -0.199253 -3.67402 -0.199253L-9.06381 -0.199253C-9.23318 -0.199253 -9.4125 -0.199253 -9.4125 -4.44089e-16C-9.4125 0.199253 -9.23318 0.199253 -9.06381 0.199253ZM-9.06381 0.199253" fill="black"/>
  <path d="M-2.10212 2.49066M2.09215 -0.697385C2.09215 -1.4944 2.04234 -2.29141 1.69365 -3.02864C1.23537 -3.98506 0.418431 -4.14446 4.44089e-16 -4.14446C-0.597758 -4.14446 -1.32503 -3.88543 -1.7335 -2.9589C-2.0523 -2.27148 -2.10212 -1.4944 -2.10212 -0.697385C-2.10212 0.0498132 -2.06227 0.946451 -1.6538 1.70361C-1.2254 2.51059 -0.498132 2.70984 -0.00996264 2.70984C0.52802 2.70984 1.28518 2.50062 1.72354 1.55417C2.04234 0.86675 2.09215 0.0896638 2.09215 -0.697385ZM2.09215 -0.697385M-0.00996264 2.49066C-0.398506 2.49066 -0.986301 2.24159 -1.16563 1.28518C-1.27522 0.687422 -1.27522 -0.229141 -1.27522 -0.816936C-1.27522 -1.45455 -1.27522 -2.11208 -1.19552 -2.65006C-1.00623 -3.83562 -0.259029 -3.92528 -0.00996264 -3.92528C0.318804 -3.92528 0.976339 -3.74595 1.16563 -2.75965C1.26526 -2.20174 1.26526 -1.44458 1.26526 -0.816936C1.26526 -0.0697385 1.26526 0.607721 1.15567 1.24533C1.00623 2.19178 0.438356 2.49066 -0.00996264 2.49066ZM-0.00996264 2.49066" fill="black"/>
  <path d="M3.34746 2.49066M4.4035 1.96264C4.4035 1.67372 4.1644 1.43462 3.87548 1.43462C3.58657 1.43462 3.34746 1.67372 3.34746 1.96264C3.34746 2.25156 3.58657 2.49066 3.87548 2.49066C4.1644 2.49066 4.4035 2.25156 4.4035 1.96264ZM4.4035 1.96264" fill="black"/>
  <path d="M5.75622 2.49066M9.73131 0.488169C9.73131 -0.697385 8.91437 -1.69365 7.83841 -1.69365C7.3602 -1.69365 6.93181 -1.53425 6.57315 -1.18555L6.57315 -3.12827C6.7724 -3.06849 7.10117 -2.99875 7.41998 -2.99875C8.64538 -2.99875 9.34277 -3.90535 9.34277 -4.03487C9.34277 -4.09465 9.31288 -4.14446 9.24314 -4.14446C9.23318 -4.14446 9.21325 -4.14446 9.16344 -4.11457C8.96419 -4.02491 8.47602 -3.82565 7.80852 -3.82565C7.41001 -3.82565 6.95173 -3.89539 6.48349 -4.10461C6.40379 -4.1345 6.38386 -4.1345 6.36394 -4.1345C6.26431 -4.1345 6.26431 -4.05479 6.26431 -3.89539L6.26431 -0.946451C6.26431 -0.767123 6.26431 -0.687422 6.40379 -0.687422C6.47353 -0.687422 6.49345 -0.71731 6.5333 -0.777086C6.64289 -0.936488 7.01151 -1.47447 7.81848 -1.47447C8.33654 -1.47447 8.58561 -1.01619 8.66531 -0.836862C8.82471 -0.468244 8.84463 -0.0797011 8.84463 0.418431C8.84463 0.767123 8.84463 1.36488 8.60553 1.78331C8.36643 2.17186 7.99781 2.43088 7.53953 2.43088C6.81226 2.43088 6.24439 1.90286 6.07502 1.31507C6.10491 1.32503 6.1348 1.33499 6.24439 1.33499C6.57315 1.33499 6.74252 1.08593 6.74252 0.846824C6.74252 0.607721 6.57315 0.358655 6.24439 0.358655C6.10491 0.358655 5.75622 0.428394 5.75622 0.886675C5.75622 1.74346 6.44364 2.70984 7.55945 2.70984C8.71512 2.70984 9.73131 1.75342 9.73131 0.488169ZM9.73131 0.488169" fill="black"/>
 </g>
 <g transform="matrix(1.000000,0.000000,0.000000,1.000000,-161.332214,-21.614418)">
  <path d="M-2.10212 2.49066M2.09215 -0.697385C2.09215 -1.4944 2.04234 -2.29141 1.69365 -3.02864C1.23537 -3.98506 0.418431 -4.14446 4.44089e-16 -4.14446C-0.597758 -4.14446 -1.32503 -3.88543 -1.7335 -2.9589C-2.0523 -2.27148 -2.10212 -1.4944 -2.10212 -0.697385C-2.10212 0.0498132 -2.06227 0.946451 -1.6538 1.70361C-1.2254 2.51059 -0.498132 2.70984 -0.00996264 2.70984C0.52802 2.70984 1.28518 2.50062 1.72354 1.55417C2.04234 0.86675 2.09215 0.0896638 2.09215 -0.697385ZM2.09215 -0.697385M-0.00996264 2.49066C-0.398506 2.49066 -0.986301 2.24159 -1.16563 1.28518C-1.27522 0.687422 -1.27522 -0.229141 -1.27522 -0.816936C-1.27522 -1.45455 -1.27522 -2.11208 -1.19552 -2.65006C-1.00623 -3.83562 -0.259029 -3.92528 -0.00996264 -3.92528C0.318804 -3.92528 0.976339 -3.74595 1.16563 -2.75965C1.26526 -2.20174 1.26526 -1.44458 1.26526 -0.816936C1.26526 -0.0697385 1.26526 0.607721 1.15567 1.24533C1.00623 2.19178 0.438356 2.49066 -0.00996264 2.49066ZM-0.00996264 2.49066" fill="black"/>
 </g>
 <g transform="matrix(1.000000,0.000000,0.000000,1.000000,-167.422873,-52.194511)">
  <path d="M-5.97649 2.49066M-1.78222 -0.697385C-1.78222 -1.4944 -1.83203 -2.29141 -2.18072 -3.02864C-2.639 -3.98506 -3.45594 -4.14446 -3.87437 -4.14446C-4.47213 -4.14446 -5.1994 -3.88543 -5.60787 -2.9589C-5.92668 -2.27148 -5.97649 -1.4944 -5.97649 -0.697385C-5.97649 0.0498132 -5.93664 0.946451 -5.52817 1.70361C-5.09978 2.51059 -4.3725 2.70984 -3.88433 2.70984C-3.34635 2.70984 -2.58919 2.50062 -2.15084 1.55417C-1.83203 0.86675 -1.78222 0.0896638 -1.78222 -0.697385ZM-1.78222 -0.697385M-3.88433 2.49066C-4.27288 2.49066 -4.86067 2.24159 -5.04 1.28518C-5.14959 0.687422 -5.14959 -0.229141 -5.14959 -0.816936C-5.14959 -1.45455 -5.14959 -2.11208 -5.06989 -2.65006C-4.8806 -3.83562 -4.1334 -3.92528 -3.88433 -3.92528C-3.55557 -3.92528 -2.89803 -3.74595 -2.70874 -2.75965C-2.60912 -2.20174 -2.60912 -1.44458 -2.60912 -0.816936C-2.60912 -0.0697385 -2.60912 0.607721 -2.71871 1.24533C-2.86815 2.19178 -3.43602 2.49066 -3.88433 2.49066ZM-3.88433 2.49066" fill="black"/>
  <path d="M-0.52691 2.49066M0.52913 1.96264C0.52913 1.67372 0.290027 1.43462 0.00111034 1.43462C-0.287806 1.43462 -0.52691 1.67372 -0.52691 1.96264C-0.52691 2.25156 -0.287806 2.49066 0.00111034 2.49066C0.290027 2.49066 0.52913 2.25156 0.52913 1.96264ZM0.52913 1.96264" fill="black"/>
  <path d="M1.88184 2.49066M5.85694 0.488169C5.85694 -0.697385 5.04 -1.69365 3.96404 -1.69365C3.48583 -1.69365 3.05744 -1.53425 2.69878 -1.18555L2.69878 -3.12827C2.89803 -3.06849 3.2268 -2.99875 3.5456 -2.99875C4.77101 -2.99875 5.46839 -3.90535 5.46839 -4.03487C5.46839 -4.09465 5.43851 -4.14446 5.36877 -4.14446C5.35881 -4.14446 5.33888 -4.14446 5.28907 -4.11457C5.08981 -4.02491 4.60164 -3.82565 3.93415 -3.82565C3.53564 -3.82565 3.07736 -3.89539 2.60912 -4.10461C2.52942 -4.1345 2.50949 -4.1345 2.48956 -4.1345C2.38994 -4.1345 2.38994 -4.05479 2.38994 -3.89539L2.38994 -0.946451C2.38994 -0.767123 2.38994 -0.687422 2.52942 -0.687422C2.59915 -0.687422 2.61908 -0.71731 2.65893 -0.777086C2.76852 -0.936488 3.13714 -1.47447 3.94411 -1.47447C4.46217 -1.47447 4.71123 -1.01619 4.79093 -0.836862C4.95034 -0.468244 4.97026 -0.0797011 4.97026 0.418431C4.97026 0.767123 4.97026 1.36488 4.73116 1.78331C4.49206 2.17186 4.12344 2.43088 3.66516 2.43088C2.93788 2.43088 2.37001 1.90286 2.20065 1.31507C2.23054 1.32503 2.26042 1.33499 2.37001 1.33499C2.69878 1.33499 2.86815 1.08593 2.86815 0.846824C2.86815 0.607721 2.69878 0.358655 2.37001 0.358655C2.23054 0.358655 1.88184 0.428394 1.88184 0.886675C1.88184 1.74346 2.56927 2.70984 3.68508 2.70984C4.84075 2.70984 5.85694 1.75342 5.85694 0.488169ZM5.85694 0.488169" fill="black"/>
 </g>
 <g transform="matrix(1.000000,0.000000,0.000000,1.000000,-165.958814,-82.730318)">
  <path d="M-1.60399 2.49066M0.438356 -3.88543C0.438356 -4.12453 0.438356 -4.14446 0.209215 -4.14446C-0.408468 -3.50685 -1.28518 -3.50685 -1.60399 -3.50685L-1.60399 -3.19801C-1.40473 -3.19801 -0.816936 -3.19801 -0.298879 -3.45704L-0.298879 1.70361C-0.298879 2.06227 -0.328767 2.18182 -1.2254 2.18182L-1.54421 2.18182L-1.54421 2.49066C-1.19552 2.46077 -0.328767 2.46077 0.0697385 2.46077C0.468244 2.46077 1.33499 2.46077 1.68369 2.49066L1.68369 2.18182L1.36488 2.18182C0.468244 2.18182 0.438356 2.07223 0.438356 1.70361ZM0.438356 1.70361" fill="black"/>
 </g>
 <g stroke-linecap="square">
  <path d="M-145.763 37.584L-154.765 -81.374" stroke="black"/>
 </g>
 <g stroke-linecap="butt" stroke-dasharray="none">
  <path d="M-128.923 17.51L-119.572 29.8228L-110.354 35.7048L-100.427 49.1706L-90.4585 58.164L-80.1533 67.5977L-69.5148 77.0101L-58.1417 98.5458L-46.8144 108.851L-35.0566 121.074" stroke="black"/>
 </g>
 <g stroke-linecap="butt" stroke-dasharray="none">
  <path d="M-119.191 10.9168L-109.584 25.7144L-100.148 33.0801L-90.2682 43.4824L-80.0174 55.8605L-69.6792 62.8216L-58.6916 78.9299L-47.5285 90.7733L-36.095 98.2721L-24.0032 122.965" stroke="black"/>
 </g>
 <g stroke-linecap="butt" stroke-dasharray="none">
  <path d="M-108.732 18.1575L-99.6837 21.3331L-90.098 29.0685L-80.1846 37.4604L-69.8119 49.8865L-59.2964 57.6166L-48.1208 77.0978L-36.7205 95.4498L-25.2116 101.327L-13.1934 114.597" stroke="black"/>
 </g>
 <g stroke-linecap="butt" stroke-dasharray="none">
  <path d="M-99.2532 9.72085L-89.6971 20.3084L-80.1429 24.5935L-69.9471 37.2517L-59.4371 51.2945L-49.021 51.0183L-37.7384 71.4388L-26.3059 85.5691L-14.5476 98.8697L-2.42284 112.555" stroke="black"/>
 </g>
 <g stroke-linecap="butt" stroke-dasharray="none">
  <path d="M-89.589 5.86187L-80.1191 11.8101L-70.0617 25.5289L-59.9693 32.4501L-49.3889 45.3723L-38.599 54.411L-27.323 72.7712L-15.8625 81.9L-4.00065 93.4232L8.25389 104.764" stroke="black"/>
 </g>
 <g stroke-linecap="butt" stroke-dasharray="none">
  <path d="M-79.8246 6.15574L-70.2039 13.3675L-60.2265 22.5209L-49.9487 31.9096L-39.3631 41.1971L-28.5034 46.6967L-17.1603 61.9061L-5.50752 79.261L6.46944 88.5099L18.7963 105.141" stroke="black"/>
 </g>
 <g stroke-linecap="butt" stroke-dasharray="none">
  <path d="M-70.3804 0.553268L-60.5253 11.3174L-50.3536 24.1114L-40.0571 30.4543L-29.3607 40.4249L-18.3875 45.3748L-6.96701 61.8813L4.74496 77.2126L16.8296 86.9897L29.253 101.922" stroke="black"/>
 </g>
 <g stroke-linecap="butt" stroke-dasharray="none">
  <path d="M-60.9951 -5.35082L-51.0748 3.85236L-40.8225 15.4147L-30.3399 24.1666L-19.5634 30.1509L-8.37647 44.5298L3.10947 57.515L14.9327 70.0053L27.1389 81.02L39.8022 89.6525" stroke="black"/>
 </g>
 <g stroke-linecap="butt" stroke-dasharray="none">
  <path d="M-51.4628 -3.87351L-41.6296 -2.32059L-31.2758 9.09228L-20.7087 14.3656L-9.73933 27.2809L1.52623 41.618L13.1174 52.0326L25 68.2253L37.3352 77.4832L50.0793 87.6158" stroke="black"/>
 </g>
 <g stroke-linecap="butt" stroke-dasharray="none">
  <path d="M-42.2761 -13.1585L-32.1578 -4.12784L-21.7074 8.79141L-11.047 12.237L-7.97285e-14 20.4029L11.4046 28.0796L23.0952 43.7979L34.9671 66.2012L47.6732 64.736L60.4808 78.2969" stroke="black"/>
 </g>
 <g stroke-linecap="butt" stroke-dasharray="none">
  <path d="M-33.105 -22.6432L-22.8604 -13.6158L-12.2843 1.69809L-1.47409 9.04275L9.71069 10.5491L21.2048 23.6674L33.0296 36.1099L45.2257 47.5804L57.7013 62.4854L71.1549 60.8892" stroke="black"/>
 </g>
 <g stroke-linecap="butt" stroke-dasharray="none">
  <path d="M-23.817 -21.5384L-13.4954 -11.5084L-2.8931 -2.63105L8.04041 1.50502L19.3825 3.27184L30.723 32.6033L42.5791 44.023L55.1021 44.7478L67.7247 57.5501L80.6093 73.3971" stroke="black"/>
 </g>
 <g stroke-linecap="butt" stroke-dasharray="none">
  <path d="M-14.5913 -14.266L-4.23728 -3.30046L6.4194 -1.74641L17.4073 6.82234L28.8662 6.15197L40.5636 16.4709L52.4878 31.5775L64.7422 46.2613L77.598 54.5661L90.7867 65.4455" stroke="black"/>
 </g>
 <g stroke-linecap="butt" stroke-dasharray="none">
  <path d="M-5.5671 -20.9144L4.88609 -11.1386L15.6337 -2.27769L26.7333 3.80366L38.2525 7.10302L50.0383 16.4305L61.8551 36.3209L74.2786 47.0649L86.6547 67.4992L100.559 64.3598" stroke="black"/>
 </g>
 <g stroke-linecap="butt" stroke-dasharray="none">
  <path d="M3.40736 -18.4346L13.9722 -17.1991L24.7534 -2.80902L35.878 6.63969L47.5192 8.2637L59.3256 18.99L71.239 36.3564L83.746 46.656L96.7258 55.5545L110.124 64.9756" stroke="black"/>
 </g>
 <g stroke-linecap="butt" stroke-dasharray="none">
  <path d="M12.3137 -23.5529L22.9158 -14.4544L33.8042 -4.74435L45.1432 -1.29776L56.5731 12.8055L68.8353 11.5304L80.5773 34.8691L93.2027 44.242L106.746 44.5839L119.56 65.6354" stroke="black"/>
 </g>
 <g stroke-linecap="butt" stroke-dasharray="none">
  <path d="M21.279 -38.5672L31.8554 -18.8579L42.9563 -14.9763L54.444 -11.4721L65.9452 3.60569L77.9696 12.5997L90.7576 13.2873L102.767 38.1806L115.394 56.1939L129.448 57.8429" stroke="black"/>
 </g>
 <g stroke-linecap="butt" stroke-dasharray="none">
  <path d="M30.2408 -50.5836L41.1892 -45.0953L52.5399 -41.8016L64.1557 -34.6117L76.2706 -30.9333L88.0796 -10.7399L101.415 -15.7097L113.75 6.85232L127.441 12.3333L140.723 30.4682" stroke="black"/>
 </g>
 <g stroke-linecap="butt" stroke-dasharray="none">
  <path d="M39.4781 -76.0778L50.7516 -74.9298L62.0423 -61.2642L73.6433 -48.5871L86.1301 -49.5556L98.7553 -43.2819L110.96 -21.825L125.151 -28.1417L138.255 -9.53371L152.457 -0.871179" stroke="black"/>
 </g>
 <g stroke-linecap="butt" stroke-dasharray="none">
  <path d="M48.7885 -99.1505L60.3264 -99.4397L71.4788 -76.6374L83.3825 -68.0106L95.8351 -63.4632L108.732 -59.2019L121.761 -49.5276L135.143 -39.0027L149.289 -33.0451L164.003 -27.6826" stroke="black"/>
 </g>
 <g stroke-linecap="butt" stroke-dasharray="none">
  <path d="M-128.923 17.51L-119.191 10.9168L-108.732 18.1575L-99.2532 9.72085L-89.589 5.86187L-79.8246 6.15574L-70.3804 0.553268L-60.9951 -5.35082L-51.4628 -3.87351L-42.2761 -13.1585L-33.105 -22.6432L-23.817 -21.5384L-14.5913 -14.266L-5.5671 -20.9144L3.40736 -18.4346L12.3137 -23.5529L21.279 -38.5672L30.2408 -50.5836L39.4781 -76.0778L48.7885 -99.1505" stroke="black"/>
 </g>
 <g stroke-linecap="butt" stroke-dasharray="none">
  <path d="M-119.572 29.8228L-109.584 25.7144L-99.6837 21.3331L-89.6971 20.3084L-80.1191 11.8101L-70.2039 13.3675L-60.5253 11.3174L-51.0748 3.85236L-41.6296 -2.32059L-32.1578 -4.12784L-22.8604 -13.6158L-13.4954 -11.5084L-4.23728 -3.30046L4.88609 -11.1386L13.9722 -17.1991L22.9158 -14.4544L31.8554 -18.8579L41.1892 -45.0953L50.7516 -74.9298L60.3264 -99.4397" stroke="black"/>
 </g>
 <g stroke-linecap="butt" stroke-dasharray="none">
  <path d="M-110.354 35.7048L-100.148 33.0801L-90.098 29.0685L-80.1429 24.5935L-70.0617 25.5289L-60.2265 22.5209L-50.3536 24.1114L-40.8225 15.4147L-31.2758 9.09228L-21.7074 8.79141L-12.2843 1.69809L-2.8931 -2.63105L6.4194 -1.74641L15.6337 -2.27769L24.7534 -2.80902L33.8042 -4.74435L42.9563 -14.9763L52.5399 -41.8016L62.0423 -61.2642L71.4788 -76.6374" stroke="black"/>
 </g>
 <g stroke-linecap="butt" stroke-dasharray="none">
  <path d="M-100.427 49.1706L-90.2682 43.4824L-80.1846 37.4604L-69.9471 37.2517L-59.9693 32.4501L-49.9487 31.9096L-40.0571 30.4543L-30.3399 24.1666L-20.7087 14.3656L-11.047 12.237L-1.47409 9.04275L8.04041 1.50502L17.4073 6.82234L26.7333 3.80366L35.878 6.63969L45.1432 -1.29776L54.444 -11.4721L64.1557 -34.6117L73.6433 -48.5871L83.3825 -68.0106" stroke="black"/>
 </g>
 <g stroke-linecap="butt" stroke-dasharray="none">
  <path d="M-90.4585 58.164L-80.0174 55.8605L-69.8119 49.8865L-59.4371 51.2945L-49.3889 45.3723L-39.3631 41.1971L-29.3607 40.4249L-19.5634 30.1509L-9.73933 27.2809L-7.97285e-14 20.4029L9.71069 10.5491L19.3825 3.27184L28.8662 6.15197L38.2525 7.10302L47.5192 8.2637L56.5731 12.8055L65.9452 3.60569L76.2706 -30.9333L86.1301 -49.5556L95.8351 -63.4632" stroke="black"/>
 </g>
 <g stroke-linecap="butt" stroke-dasharray="none">
  <path d="M-80.1533 67.5977L-69.6792 62.8216L-59.2964 57.6166L-49.021 51.0183L-38.599 54.411L-28.5034 46.6967L-18.3875 45.3748L-8.37647 44.5298L1.52623 41.618L11.4046 28.0796L21.2048 23.6674L30.723 32.6033L40.5636 16.4709L50.0383 16.4305L59.3256 18.99L68.8353 11.5304L77.9696 12.5997L88.0796 -10.7399L98.7553 -43.2819L108.732 -59.2019" stroke="black"/>
 </g>
 <g stroke-linecap="butt" stroke-dasharray="none">
  <path d="M-69.5148 77.0101L-58.6916 78.9299L-48.1208 77.0978L-37.7384 71.4388L-27.323 72.7712L-17.1603 61.9061L-6.96701 61.8813L3.10947 57.515L13.1174 52.0326L23.0952 43.7979L33.0296 36.1099L42.5791 44.023L52.4878 31.5775L61.8551 36.3209L71.239 36.3564L80.5773 34.8691L90.7576 13.2873L101.415 -15.7097L110.96 -21.825L121.761 -49.5276" stroke="black"/>
 </g>
 <g stroke-linecap="butt" stroke-dasharray="none">
  <path d="M-58.1417 98.5458L-47.5285 90.7733L-36.7205 95.4498L-26.3059 85.5691L-15.8625 81.9L-5.50752 79.261L4.74496 77.2126L14.9327 70.0053L25 68.2253L34.9671 66.2012L45.2257 47.5804L55.1021 44.7478L64.7422 46.2613L74.2786 47.0649L83.746 46.656L93.2027 44.242L102.767 38.1806L113.75 6.85232L125.151 -28.1417L135.143 -39.0027" stroke="black"/>
 </g>
 <g stroke-linecap="butt" stroke-dasharray="none">
  <path d="M-46.8144 108.851L-36.095 98.2721L-25.2116 101.327L-14.5476 98.8697L-4.00065 93.4232L6.46944 88.5099L16.8296 86.9897L27.1389 81.02L37.3352 77.4832L47.6732 64.736L57.7013 62.4854L67.7247 57.5501L77.598 54.5661L86.6547 67.4992L96.7258 55.5545L106.746 44.5839L115.394 56.1939L127.441 12.3333L138.255 -9.53371L149.289 -33.0451" stroke="black"/>
 </g>
 <g stroke-linecap="butt" stroke-dasharray="none">
  <path d="M-35.0566 121.074L-24.0032 122.965L-13.1934 114.597L-2.42284 112.555L8.25389 104.764L18.7963 105.141L29.253 101.922L39.8022 89.6525L50.0793 87.6158L60.4808 78.2969L71.1549 60.8892L80.6093 73.3971L90.7867 65.4455L100.559 64.3598L110.124 64.9756L119.56 65.6354L129.448 57.8429L140.723 30.4682L152.457 -0.871179L164.003 -27.6826" stroke="black"/>
 </g>
</svg>
